<svg id="svg" version="1.1" xmlns="http://www.w3.org/2000/svg" xmlns:xlink="http://www.w3.org/1999/xlink" width="400" height="400" viewBox="0, 0, 400,400"><g id="svgg"><path id="path0" d="M74.000 86.063 C 66.092 87.348,65.195 87.570,57.800 90.081 C 42.688 95.211,26.540 108.819,18.901 122.860 C 18.225 124.102,17.398 125.542,17.063 126.060 C 15.214 128.918,12.024 138.258,11.004 143.800 C 7.839 160.995,13.934 173.729,26.600 176.383 C 27.920 176.660,29.522 177.047,30.160 177.243 C 33.497 178.270,38.509 177.517,37.239 176.180 C 36.788 175.705,35.683 172.500,34.970 169.600 C 34.301 166.883,34.205 152.942,34.831 149.424 C 35.993 142.884,36.500 140.649,37.191 139.000 C 37.376 138.560,38.186 136.502,38.992 134.426 C 41.170 128.816,44.753 122.914,48.237 119.200 C 49.166 118.210,50.257 117.013,50.663 116.540 C 54.724 111.801,69.625 102.639,69.593 104.900 C 69.580 105.813,68.467 112.172,68.000 114.000 C 67.747 114.990,67.395 116.520,67.218 117.400 C 67.040 118.280,66.313 121.790,65.602 125.200 C 64.891 128.610,64.228 131.850,64.129 132.400 C 64.030 132.950,63.590 134.930,63.152 136.800 C 62.176 140.972,61.799 142.709,61.200 145.800 C 60.944 147.120,60.571 148.920,60.371 149.800 C 60.171 150.680,59.555 153.650,59.003 156.400 C 58.451 159.150,57.819 162.120,57.600 163.000 C 57.381 163.880,56.749 166.850,56.197 169.600 C 55.645 172.350,55.029 175.320,54.829 176.200 C 54.629 177.080,54.254 178.880,53.996 180.200 C 53.738 181.520,53.174 184.130,52.742 186.000 C 51.642 190.761,51.271 192.447,51.067 193.600 C 50.805 195.084,48.364 206.780,47.979 208.400 C 47.456 210.594,46.034 217.174,45.558 219.600 C 45.320 220.810,44.979 222.520,44.800 223.400 C 44.621 224.280,44.287 225.990,44.058 227.200 C 43.829 228.410,43.366 230.430,43.029 231.689 C 42.523 233.579,39.149 249.696,38.526 253.200 C 38.428 253.750,37.990 255.730,37.552 257.600 C 36.576 261.772,36.199 263.509,35.600 266.600 C 35.344 267.920,34.979 269.720,34.788 270.600 C 33.952 274.455,33.617 276.292,33.512 277.600 L 33.400 279.000 51.800 279.000 L 70.200 279.000 70.459 277.400 C 70.793 275.335,71.494 271.833,71.981 269.800 C 72.843 266.195,73.222 264.510,73.556 262.800 C 74.026 260.399,76.405 248.966,76.804 247.200 C 78.318 240.485,78.884 237.893,79.249 236.000 C 79.483 234.790,79.821 233.080,80.000 232.200 C 80.179 231.320,80.517 229.610,80.751 228.400 C 80.984 227.190,81.559 224.490,82.028 222.400 C 83.403 216.271,83.473 215.950,84.159 212.600 C 84.519 210.840,84.976 208.680,85.174 207.800 C 85.373 206.920,85.744 205.120,86.000 203.800 C 86.578 200.815,86.945 199.114,87.942 194.800 C 88.374 192.930,88.938 190.320,89.196 189.000 C 89.454 187.680,89.821 185.880,90.012 185.000 C 90.203 184.120,90.558 182.410,90.800 181.200 C 91.296 178.722,91.616 177.275,92.742 172.400 C 93.174 170.530,93.738 167.920,93.996 166.600 C 94.254 165.280,94.624 163.480,94.818 162.600 C 95.013 161.720,95.373 159.920,95.618 158.600 C 95.863 157.280,96.241 155.390,96.457 154.400 C 96.837 152.662,96.995 152.008,98.027 147.900 C 98.645 145.439,99.026 145.497,99.346 148.100 C 99.488 149.255,99.791 151.190,100.020 152.400 C 100.249 153.610,100.615 155.680,100.832 157.000 C 101.050 158.320,101.411 160.480,101.634 161.800 C 101.857 163.120,102.189 165.190,102.371 166.400 C 102.554 167.610,102.976 170.040,103.308 171.800 C 103.641 173.560,104.124 176.350,104.382 178.000 C 104.639 179.650,105.008 181.990,105.200 183.200 C 105.392 184.410,105.752 186.750,106.000 188.400 C 106.658 192.788,107.070 195.277,107.949 200.200 C 108.825 205.098,109.355 208.340,110.009 212.800 C 110.251 214.450,110.613 216.790,110.814 218.000 C 111.015 219.210,111.377 221.550,111.619 223.200 C 111.862 224.850,112.215 226.920,112.403 227.800 C 112.803 229.661,113.396 233.076,113.984 236.900 C 114.213 238.385,114.587 240.815,114.816 242.300 C 115.044 243.785,115.393 245.990,115.591 247.200 C 115.788 248.410,116.149 250.750,116.392 252.400 C 116.636 254.050,116.992 256.210,117.185 257.200 C 117.885 260.805,118.889 266.817,119.589 271.600 C 119.830 273.250,120.246 275.590,120.514 276.800 L 121.000 279.000 136.452 279.105 L 151.905 279.209 152.111 278.305 C 153.254 273.285,154.097 269.425,154.449 267.600 C 154.683 266.390,155.021 264.680,155.200 263.800 C 155.379 262.920,155.722 261.210,155.962 260.000 C 156.370 257.943,156.761 256.189,157.571 252.800 C 157.755 252.030,158.378 249.060,158.956 246.200 C 159.534 243.340,160.171 240.280,160.371 239.400 C 160.571 238.520,160.944 236.720,161.200 235.400 C 161.778 232.415,162.145 230.714,163.142 226.400 C 163.574 224.530,164.138 221.920,164.396 220.600 C 164.654 219.280,165.021 217.480,165.212 216.600 C 165.403 215.720,165.758 214.010,166.000 212.800 C 166.496 210.322,166.816 208.875,167.942 204.000 C 168.374 202.130,168.941 199.520,169.202 198.200 C 170.094 193.693,170.478 191.800,170.825 190.200 C 171.016 189.320,171.377 187.520,171.628 186.200 C 171.879 184.880,172.226 183.350,172.399 182.800 C 172.573 182.250,172.928 180.720,173.190 179.400 C 173.451 178.080,173.830 176.235,174.032 175.300 C 174.235 174.365,174.565 172.835,174.768 171.900 C 174.970 170.965,175.344 169.120,175.600 167.800 C 176.178 164.815,176.545 163.114,177.542 158.800 C 177.974 156.930,178.541 154.320,178.802 153.000 C 179.704 148.444,180.079 146.594,180.467 144.800 C 181.079 141.966,181.496 139.989,182.027 137.400 C 182.298 136.080,182.772 134.010,183.081 132.800 C 183.389 131.590,183.829 129.610,184.058 128.400 C 184.707 124.968,185.048 123.236,185.713 120.000 C 186.824 114.594,187.403 111.940,188.156 108.800 C 188.774 106.220,189.001 105.162,190.253 99.000 C 191.176 94.456,191.545 92.510,191.959 90.000 C 192.158 88.790,192.361 87.620,192.408 87.400 C 192.712 85.997,192.748 86.000,174.449 86.000 C 154.266 86.000,155.800 85.740,155.217 89.258 C 154.550 93.279,153.060 100.664,152.404 103.200 C 152.205 103.970,151.662 106.670,151.197 109.200 C 150.732 111.730,150.195 114.520,150.003 115.400 C 149.811 116.280,149.440 118.170,149.180 119.600 C 148.919 121.030,148.386 123.640,147.995 125.400 C 147.189 129.022,146.747 131.199,145.600 137.200 C 144.331 143.837,143.984 145.575,143.199 149.200 C 142.485 152.497,142.188 153.955,141.203 159.000 C 140.946 160.320,140.582 162.120,140.394 163.000 C 140.207 163.880,139.847 165.770,139.594 167.200 C 138.895 171.155,137.851 176.207,137.196 178.800 C 137.001 179.570,136.462 182.270,135.997 184.800 C 135.532 187.330,134.995 190.120,134.803 191.000 C 134.611 191.880,134.248 193.770,133.996 195.200 C 133.744 196.630,133.209 199.240,132.806 201.000 C 132.403 202.760,131.859 205.280,131.598 206.600 C 130.103 214.155,129.822 215.496,128.731 220.300 C 127.835 224.245,127.200 225.522,127.200 223.377 C 127.200 222.815,127.035 221.600,126.834 220.677 C 126.633 219.755,126.268 217.470,126.024 215.600 C 125.602 212.358,125.312 210.302,124.391 204.002 C 123.501 197.913,123.160 195.718,122.805 193.800 C 122.602 192.700,122.237 190.360,121.994 188.600 C 121.751 186.840,121.394 184.320,121.200 183.000 C 121.006 181.680,120.646 179.160,120.400 177.400 C 120.154 175.640,119.794 173.120,119.600 171.800 C 119.406 170.480,119.048 167.960,118.803 166.200 C 118.385 163.186,118.145 161.661,117.216 156.100 C 116.737 153.236,116.182 149.558,115.600 145.400 C 115.354 143.640,114.994 141.120,114.800 139.800 C 114.606 138.480,114.246 135.960,114.000 134.200 C 113.307 129.246,112.808 125.985,112.410 123.800 C 111.999 121.550,111.180 116.135,110.020 108.000 C 108.309 96.004,108.053 94.351,107.366 90.890 C 106.569 86.873,86.700 83.999,74.000 86.063 M218.600 126.399 C 218.160 126.588,217.349 126.838,216.797 126.955 C 214.866 127.362,211.405 130.635,210.327 133.073 C 209.509 134.920,209.009 135.110,206.896 134.374 C 205.585 133.917,202.328 134.631,200.619 135.750 C 198.275 137.287,197.095 142.519,198.420 145.505 L 198.999 146.809 236.646 146.792 C 257.351 146.782,274.400 146.666,274.533 146.534 C 274.838 146.228,273.242 144.964,271.747 144.328 C 271.116 144.060,269.072 143.741,267.204 143.620 C 263.905 143.406,263.791 143.366,263.255 142.200 C 261.096 137.508,254.507 134.985,251.420 137.670 C 250.612 138.372,249.618 137.959,249.003 136.663 C 246.474 131.334,240.602 129.129,235.482 131.585 L 233.564 132.505 231.800 130.753 C 229.126 128.095,227.949 127.198,226.824 126.961 C 226.261 126.842,225.387 126.577,224.881 126.372 C 223.749 125.914,219.687 125.931,218.600 126.399 M199.373 150.706 C 199.138 150.868,198.640 152.350,198.265 154.000 C 197.300 158.251,195.247 167.830,194.793 170.200 C 194.398 172.263,193.006 178.730,192.426 181.200 C 192.124 182.482,191.519 185.418,190.363 191.200 C 189.633 194.850,189.199 196.871,188.559 199.600 C 188.224 201.030,187.682 203.550,187.355 205.200 C 187.029 206.850,186.604 208.830,186.411 209.600 C 186.218 210.370,185.866 211.990,185.629 213.200 C 184.728 217.798,183.891 221.851,183.565 223.200 C 177.789 247.097,178.234 260.358,185.151 270.400 C 194.245 283.605,218.131 283.792,235.400 270.792 C 240.742 266.771,249.075 257.696,248.589 256.428 C 248.022 254.948,246.720 248.289,246.474 245.607 L 246.200 242.614 244.921 244.607 C 242.764 247.967,237.399 252.890,234.400 254.262 C 231.495 255.590,230.378 255.800,226.200 255.800 C 218.647 255.800,216.000 253.211,216.000 245.821 C 216.000 242.593,216.248 240.945,217.630 235.000 C 217.835 234.120,218.168 232.500,218.370 231.400 C 218.922 228.402,219.966 223.210,220.380 221.400 C 220.582 220.520,220.961 218.630,221.224 217.200 C 221.487 215.770,222.013 213.340,222.394 211.800 C 222.775 210.260,223.307 207.920,223.576 206.600 C 223.845 205.280,224.227 203.480,224.426 202.600 C 225.011 200.004,226.076 194.741,226.414 192.778 C 226.586 191.776,226.951 190.156,227.224 189.178 C 227.498 188.200,227.852 186.680,228.010 185.800 C 228.578 182.654,231.259 169.738,232.038 166.400 C 232.474 164.530,232.993 162.280,233.191 161.400 C 233.389 160.520,233.738 158.969,233.968 157.954 C 234.197 156.938,234.504 154.823,234.650 153.254 L 234.915 150.400 217.357 150.406 C 207.701 150.409,199.608 150.544,199.373 150.706 " stroke="none" fill="#2d1c3a" fill-rule="evenodd"></path><path id="path1" d="M177.202 0.278 C 175.333 0.365,173.632 0.608,173.422 0.818 C 173.212 1.028,172.097 1.200,170.944 1.200 C 169.791 1.200,168.736 1.380,168.600 1.600 C 168.464 1.820,167.474 2.000,166.400 2.000 C 165.326 2.000,164.336 2.180,164.200 2.400 C 164.064 2.620,163.153 2.800,162.176 2.800 C 161.199 2.800,160.400 2.980,160.400 3.200 C 160.400 3.420,159.601 3.600,158.624 3.600 C 157.647 3.600,156.736 3.780,156.600 4.000 C 156.464 4.220,155.564 4.400,154.600 4.400 C 153.636 4.400,152.736 4.580,152.600 4.800 C 152.464 5.020,151.744 5.200,151.000 5.200 C 150.256 5.200,149.536 5.380,149.400 5.600 C 149.264 5.820,148.623 6.000,147.976 6.000 C 147.329 6.000,146.800 6.180,146.800 6.400 C 146.800 6.620,146.181 6.800,145.424 6.800 C 144.667 6.800,143.936 6.980,143.800 7.200 C 143.664 7.420,143.023 7.600,142.376 7.600 C 141.729 7.600,141.200 7.780,141.200 8.000 C 141.200 8.220,140.660 8.400,140.000 8.400 C 139.340 8.400,138.800 8.580,138.800 8.800 C 138.800 9.020,138.260 9.200,137.600 9.200 C 136.940 9.200,136.400 9.380,136.400 9.600 C 136.400 9.820,135.860 10.000,135.200 10.000 C 134.540 10.000,134.000 10.180,134.000 10.400 C 134.000 10.620,133.460 10.800,132.800 10.800 C 132.140 10.800,131.600 10.980,131.600 11.200 C 131.600 11.420,131.060 11.600,130.400 11.600 C 129.740 11.600,129.200 11.780,129.200 12.000 C 129.200 12.220,128.761 12.400,128.224 12.400 C 127.687 12.400,127.136 12.580,127.000 12.800 C 126.864 13.020,126.403 13.200,125.976 13.200 C 125.549 13.200,125.200 13.380,125.200 13.600 C 125.200 13.820,124.761 14.000,124.224 14.000 C 123.687 14.000,123.136 14.180,123.000 14.400 C 122.864 14.620,122.403 14.800,121.976 14.800 C 121.549 14.800,121.200 14.980,121.200 15.200 C 121.200 15.420,120.840 15.600,120.400 15.600 C 119.960 15.600,119.600 15.780,119.600 16.000 C 119.600 16.220,119.251 16.400,118.824 16.400 C 118.397 16.400,117.936 16.580,117.800 16.800 C 117.664 17.020,117.113 17.200,116.576 17.200 C 116.039 17.200,115.600 17.380,115.600 17.600 C 115.600 17.820,115.240 18.000,114.800 18.000 C 114.360 18.000,114.000 18.180,114.000 18.400 C 114.000 18.620,113.640 18.800,113.200 18.800 C 112.760 18.800,112.400 18.980,112.400 19.200 C 112.400 19.420,112.040 19.600,111.600 19.600 C 111.160 19.600,110.800 19.780,110.800 20.000 C 110.800 20.220,110.440 20.400,110.000 20.400 C 109.560 20.400,109.200 20.580,109.200 20.800 C 109.200 21.020,108.840 21.200,108.400 21.200 C 107.960 21.200,107.600 21.380,107.600 21.600 C 107.600 21.820,107.255 22.000,106.833 22.000 C 106.412 22.000,106.007 22.135,105.933 22.300 C 105.766 22.676,103.636 23.975,102.700 24.271 C 102.315 24.393,102.000 24.652,102.000 24.847 C 102.000 25.041,101.655 25.200,101.233 25.200 C 100.812 25.200,100.407 25.335,100.333 25.500 C 100.260 25.665,99.345 26.233,98.300 26.763 C 97.255 27.292,96.400 27.877,96.400 28.063 C 96.400 28.248,96.122 28.400,95.783 28.400 C 95.444 28.400,94.780 28.760,94.308 29.200 C 93.836 29.640,93.213 30.000,92.925 30.000 C 92.636 30.000,92.400 30.180,92.400 30.400 C 92.400 30.620,92.106 30.800,91.747 30.800 C 91.388 30.800,90.803 31.116,90.447 31.503 C 90.091 31.889,89.305 32.460,88.700 32.770 C 88.095 33.081,87.600 33.485,87.600 33.668 C 87.600 33.850,87.375 34.000,87.100 34.001 C 86.825 34.001,85.970 34.541,85.200 35.200 C 84.430 35.859,83.615 36.399,83.388 36.399 C 83.162 36.400,82.717 36.760,82.400 37.200 C 82.083 37.640,81.575 38.000,81.272 38.000 C 80.969 38.000,80.217 38.540,79.600 39.200 C 78.983 39.860,78.263 40.400,78.000 40.400 C 77.737 40.400,77.017 40.940,76.400 41.600 C 75.783 42.260,75.099 42.800,74.880 42.800 C 74.661 42.800,73.562 43.700,72.439 44.800 C 71.315 45.900,70.231 46.800,70.029 46.800 C 69.827 46.800,68.386 48.060,66.828 49.600 C 65.269 51.140,63.828 52.400,63.625 52.400 C 63.135 52.400,53.200 62.345,53.200 62.836 C 53.200 63.045,51.940 64.482,50.400 66.028 C 48.860 67.574,47.600 68.992,47.600 69.179 C 47.600 69.366,46.700 70.438,45.600 71.561 C 44.500 72.685,43.600 73.783,43.600 74.002 C 43.600 74.220,42.880 75.141,42.000 76.048 C 41.120 76.955,40.400 77.856,40.400 78.052 C 40.400 78.247,39.860 78.972,39.200 79.663 C 38.540 80.354,38.000 81.122,38.000 81.371 C 38.000 81.620,37.640 82.083,37.200 82.400 C 36.760 82.717,36.400 83.180,36.400 83.429 C 36.400 83.678,35.860 84.446,35.200 85.137 C 34.540 85.828,34.000 86.625,34.000 86.908 C 34.000 87.191,33.640 87.683,33.200 88.000 C 32.760 88.317,32.400 88.857,32.400 89.200 C 32.400 89.543,32.040 90.083,31.600 90.400 C 31.160 90.717,30.800 91.257,30.800 91.600 C 30.800 91.943,30.440 92.483,30.000 92.800 C 29.560 93.117,29.200 93.614,29.200 93.905 C 29.200 94.196,28.840 94.820,28.400 95.292 C 27.960 95.764,27.600 96.387,27.600 96.675 C 27.600 96.964,27.420 97.200,27.200 97.200 C 26.980 97.200,26.800 97.560,26.800 98.000 C 26.800 98.440,26.620 98.800,26.400 98.800 C 26.180 98.800,26.000 99.036,26.000 99.325 C 26.000 99.613,25.640 100.236,25.200 100.708 C 24.760 101.180,24.400 101.844,24.400 102.183 C 24.400 102.522,24.220 102.800,24.000 102.800 C 23.780 102.800,23.600 103.160,23.600 103.600 C 23.600 104.040,23.420 104.400,23.200 104.400 C 22.980 104.400,22.800 104.760,22.800 105.200 C 22.800 105.640,22.620 106.000,22.400 106.000 C 22.180 106.000,22.000 106.360,22.000 106.800 C 22.000 107.240,21.820 107.600,21.600 107.600 C 21.380 107.600,21.200 107.960,21.200 108.400 C 21.200 108.840,21.020 109.200,20.800 109.200 C 20.580 109.200,20.400 109.560,20.400 110.000 C 20.400 110.440,20.220 110.800,20.000 110.800 C 19.780 110.800,19.600 111.160,19.600 111.600 C 19.600 112.040,19.420 112.400,19.200 112.400 C 18.980 112.400,18.800 112.760,18.800 113.200 C 18.800 113.640,18.620 114.000,18.400 114.000 C 18.180 114.000,18.000 114.360,18.000 114.800 C 18.000 115.240,17.820 115.600,17.600 115.600 C 17.380 115.600,17.200 115.960,17.200 116.400 C 17.200 116.840,17.020 117.200,16.800 117.200 C 16.580 117.200,16.400 117.560,16.400 118.000 C 16.400 118.440,16.220 118.800,16.000 118.800 C 15.780 118.800,15.600 119.160,15.600 119.600 C 15.600 120.040,15.420 120.400,15.200 120.400 C 14.980 120.400,14.800 120.760,14.800 121.200 C 14.800 121.640,14.620 122.000,14.400 122.000 C 14.180 122.000,14.000 122.439,14.000 122.976 C 14.000 123.513,13.820 124.064,13.600 124.200 C 13.380 124.336,13.200 124.797,13.200 125.224 C 13.200 125.651,13.020 126.000,12.800 126.000 C 12.580 126.000,12.400 126.360,12.400 126.800 C 12.400 127.240,12.220 127.600,12.000 127.600 C 11.780 127.600,11.600 128.140,11.600 128.800 C 11.600 129.460,11.420 130.000,11.200 130.000 C 10.980 130.000,10.800 130.362,10.800 130.805 C 10.800 131.248,10.620 131.968,10.400 132.405 C 10.180 132.842,9.820 133.558,9.600 133.995 C 9.380 134.432,9.200 135.141,9.200 135.571 C 9.200 136.001,9.020 136.464,8.800 136.600 C 8.580 136.736,8.400 137.276,8.400 137.800 C 8.400 138.324,8.220 138.864,8.000 139.000 C 7.780 139.136,7.600 139.676,7.600 140.200 C 7.600 140.724,7.420 141.264,7.200 141.400 C 6.980 141.536,6.800 142.267,6.800 143.024 C 6.800 143.781,6.620 144.400,6.400 144.400 C 6.180 144.400,6.000 145.019,6.000 145.776 C 6.000 146.533,5.820 147.264,5.600 147.400 C 5.380 147.536,5.200 148.346,5.200 149.200 C 5.200 150.054,5.020 150.864,4.800 151.000 C 4.580 151.136,4.400 151.946,4.400 152.800 C 4.400 153.654,4.220 154.464,4.000 154.600 C 3.780 154.736,3.600 155.816,3.600 157.000 C 3.600 158.184,3.420 159.264,3.200 159.400 C 2.980 159.536,2.800 160.526,2.800 161.600 C 2.800 162.674,2.620 163.664,2.400 163.800 C 2.180 163.936,2.000 165.016,2.000 166.200 C 2.000 167.384,1.820 168.464,1.600 168.600 C 1.380 168.736,1.200 170.061,1.200 171.544 C 1.200 173.167,1.001 174.439,0.700 174.740 C -0.029 175.469,-0.029 224.531,0.700 225.260 C 0.993 225.553,1.200 226.793,1.200 228.256 C 1.200 229.629,1.380 230.864,1.600 231.000 C 1.820 231.136,2.000 232.126,2.000 233.200 C 2.000 234.274,2.180 235.264,2.400 235.400 C 2.620 235.536,2.800 236.436,2.800 237.400 C 2.800 238.364,2.980 239.264,3.200 239.400 C 3.420 239.536,3.600 240.357,3.600 241.224 C 3.600 242.091,3.780 242.800,4.000 242.800 C 4.220 242.800,4.400 243.700,4.400 244.800 C 4.400 245.900,4.580 246.800,4.800 246.800 C 5.020 246.800,5.200 247.509,5.200 248.376 C 5.200 249.243,5.380 250.064,5.600 250.200 C 5.820 250.336,6.000 251.056,6.000 251.800 C 6.000 252.544,6.180 253.264,6.400 253.400 C 6.620 253.536,6.800 254.267,6.800 255.024 C 6.800 255.781,6.980 256.400,7.200 256.400 C 7.420 256.400,7.600 256.940,7.600 257.600 C 7.600 258.260,7.780 258.800,8.000 258.800 C 8.220 258.800,8.400 259.329,8.400 259.976 C 8.400 260.623,8.580 261.264,8.800 261.400 C 9.020 261.536,9.200 262.076,9.200 262.600 C 9.200 263.124,9.380 263.664,9.600 263.800 C 9.820 263.936,10.000 264.476,10.000 265.000 C 10.000 265.524,10.180 266.064,10.400 266.200 C 10.620 266.336,10.800 266.887,10.800 267.424 C 10.800 267.961,10.980 268.400,11.200 268.400 C 11.420 268.400,11.600 268.940,11.600 269.600 C 11.600 270.260,11.780 270.800,12.000 270.800 C 12.220 270.800,12.400 271.239,12.400 271.776 C 12.400 272.313,12.580 272.864,12.800 273.000 C 13.020 273.136,13.200 273.597,13.200 274.024 C 13.200 274.451,13.380 274.800,13.600 274.800 C 13.820 274.800,14.000 275.239,14.000 275.776 C 14.000 276.313,14.180 276.864,14.400 277.000 C 14.620 277.136,14.800 277.597,14.800 278.024 C 14.800 278.451,14.980 278.800,15.200 278.800 C 15.420 278.800,15.600 279.160,15.600 279.600 C 15.600 280.040,15.780 280.400,16.000 280.400 C 16.220 280.400,16.400 280.672,16.400 281.005 C 16.400 281.338,16.580 281.968,16.800 282.405 C 17.020 282.842,17.380 283.558,17.600 283.995 C 17.820 284.432,18.000 285.062,18.000 285.395 C 18.000 285.728,18.180 286.000,18.400 286.000 C 18.620 286.000,18.800 286.360,18.800 286.800 C 18.800 287.240,18.980 287.600,19.200 287.600 C 19.420 287.600,19.600 287.960,19.600 288.400 C 19.600 288.840,19.780 289.200,20.000 289.200 C 20.220 289.200,20.400 289.560,20.400 290.000 C 20.400 290.440,20.580 290.800,20.800 290.800 C 21.020 290.800,21.200 291.160,21.200 291.600 C 21.200 292.040,21.380 292.400,21.600 292.400 C 21.820 292.400,22.000 292.760,22.000 293.200 C 22.000 293.640,22.180 294.000,22.400 294.000 C 22.620 294.000,22.800 294.345,22.800 294.767 C 22.800 295.188,22.935 295.593,23.100 295.667 C 23.476 295.834,24.775 297.964,25.071 298.900 C 25.193 299.285,25.452 299.600,25.647 299.600 C 25.841 299.600,26.000 299.920,26.000 300.312 C 26.000 300.703,26.360 301.283,26.800 301.600 C 27.240 301.917,27.600 302.497,27.600 302.888 C 27.600 303.280,27.780 303.600,28.000 303.600 C 28.220 303.600,28.400 303.920,28.400 304.312 C 28.400 304.703,28.760 305.283,29.200 305.600 C 29.640 305.917,30.000 306.497,30.000 306.888 C 30.000 307.280,30.180 307.600,30.400 307.600 C 30.620 307.600,30.800 307.836,30.800 308.125 C 30.800 308.413,31.160 309.036,31.600 309.508 C 32.040 309.980,32.400 310.527,32.400 310.724 C 32.400 310.921,32.940 311.646,33.600 312.337 C 34.260 313.028,34.800 313.825,34.800 314.108 C 34.800 314.391,35.160 314.883,35.600 315.200 C 36.040 315.517,36.400 315.980,36.400 316.229 C 36.400 316.478,36.940 317.246,37.600 317.937 C 38.260 318.628,38.800 319.392,38.800 319.636 C 38.800 319.880,39.340 320.583,40.000 321.200 C 40.660 321.817,41.200 322.519,41.200 322.760 C 41.200 323.002,41.920 323.941,42.800 324.848 C 43.680 325.755,44.400 326.666,44.400 326.874 C 44.400 327.082,45.300 328.129,46.400 329.200 C 47.500 330.271,48.400 331.344,48.400 331.584 C 48.400 332.138,67.086 350.800,67.640 350.800 C 67.867 350.800,68.929 351.700,70.000 352.800 C 71.071 353.900,72.154 354.800,72.405 354.800 C 72.657 354.800,73.554 355.520,74.400 356.400 C 75.246 357.280,76.131 358.000,76.368 358.000 C 76.605 358.000,77.541 358.720,78.448 359.600 C 79.355 360.480,80.305 361.200,80.560 361.200 C 80.815 361.200,81.283 361.560,81.600 362.000 C 81.917 362.440,82.409 362.800,82.692 362.800 C 82.975 362.800,83.772 363.340,84.463 364.000 C 85.154 364.660,85.962 365.200,86.259 365.200 C 86.557 365.200,86.800 365.350,86.800 365.532 C 86.800 365.715,87.295 366.120,87.900 366.432 C 88.505 366.745,89.349 367.315,89.775 367.700 C 90.202 368.085,90.704 368.400,90.892 368.400 C 91.080 368.400,91.620 368.760,92.092 369.200 C 92.564 369.640,93.187 370.000,93.475 370.000 C 93.764 370.000,94.000 370.180,94.000 370.400 C 94.000 370.620,94.320 370.800,94.712 370.800 C 95.103 370.800,95.683 371.160,96.000 371.600 C 96.317 372.040,96.897 372.400,97.288 372.400 C 97.680 372.400,98.000 372.580,98.000 372.800 C 98.000 373.020,98.320 373.200,98.712 373.200 C 99.103 373.200,99.683 373.560,100.000 374.000 C 100.317 374.440,100.897 374.800,101.288 374.800 C 101.680 374.800,102.000 374.980,102.000 375.200 C 102.000 375.420,102.360 375.600,102.800 375.600 C 103.240 375.600,103.600 375.780,103.600 376.000 C 103.600 376.220,103.960 376.400,104.400 376.400 C 104.840 376.400,105.201 376.535,105.203 376.700 C 105.205 376.865,105.610 377.201,106.103 377.446 C 106.596 377.691,108.420 378.636,110.155 379.546 C 111.891 380.456,113.646 381.200,114.055 381.200 C 114.465 381.200,114.800 381.380,114.800 381.600 C 114.800 381.820,115.160 382.000,115.600 382.000 C 116.040 382.000,116.400 382.180,116.400 382.400 C 116.400 382.620,116.760 382.800,117.200 382.800 C 117.640 382.800,118.000 382.980,118.000 383.200 C 118.000 383.420,118.360 383.600,118.800 383.600 C 119.240 383.600,119.600 383.780,119.600 384.000 C 119.600 384.220,119.949 384.400,120.376 384.400 C 120.803 384.400,121.264 384.580,121.400 384.800 C 121.536 385.020,122.087 385.200,122.624 385.200 C 123.161 385.200,123.600 385.380,123.600 385.600 C 123.600 385.820,123.949 386.000,124.376 386.000 C 124.803 386.000,125.264 386.180,125.400 386.400 C 125.536 386.620,126.087 386.800,126.624 386.800 C 127.161 386.800,127.600 386.980,127.600 387.200 C 127.600 387.420,128.039 387.600,128.576 387.600 C 129.113 387.600,129.664 387.780,129.800 388.000 C 129.936 388.220,130.397 388.400,130.824 388.400 C 131.251 388.400,131.600 388.580,131.600 388.800 C 131.600 389.020,132.129 389.200,132.776 389.200 C 133.423 389.200,134.064 389.380,134.200 389.600 C 134.336 389.820,134.887 390.000,135.424 390.000 C 135.961 390.000,136.400 390.180,136.400 390.400 C 136.400 390.620,136.940 390.800,137.600 390.800 C 138.260 390.800,138.800 390.980,138.800 391.200 C 138.800 391.420,139.329 391.600,139.976 391.600 C 140.623 391.600,141.264 391.780,141.400 392.000 C 141.536 392.220,142.256 392.400,143.000 392.400 C 143.744 392.400,144.464 392.580,144.600 392.800 C 144.736 393.020,145.467 393.200,146.224 393.200 C 146.981 393.200,147.600 393.380,147.600 393.600 C 147.600 393.820,148.129 394.000,148.776 394.000 C 149.423 394.000,150.064 394.180,150.200 394.400 C 150.336 394.620,151.056 394.800,151.800 394.800 C 152.544 394.800,153.264 394.980,153.400 395.200 C 153.536 395.420,154.436 395.600,155.400 395.600 C 156.364 395.600,157.264 395.780,157.400 396.000 C 157.536 396.220,158.436 396.400,159.400 396.400 C 160.364 396.400,161.264 396.580,161.400 396.800 C 161.536 397.020,162.447 397.200,163.424 397.200 C 164.401 397.200,165.200 397.380,165.200 397.600 C 165.200 397.820,166.179 398.000,167.376 398.000 C 168.573 398.000,169.664 398.180,169.800 398.400 C 169.936 398.620,171.441 398.800,173.144 398.800 C 175.087 398.800,176.426 398.986,176.740 399.300 C 177.468 400.029,223.331 400.029,224.060 399.300 C 224.362 398.998,225.637 398.800,227.280 398.800 C 228.827 398.800,230.000 398.627,230.000 398.400 C 230.000 398.180,230.979 398.000,232.176 398.000 C 233.373 398.000,234.464 397.820,234.600 397.600 C 234.736 397.380,235.636 397.200,236.600 397.200 C 237.564 397.200,238.464 397.020,238.600 396.800 C 238.736 396.580,239.636 396.400,240.600 396.400 C 241.564 396.400,242.464 396.220,242.600 396.000 C 242.736 395.780,243.636 395.600,244.600 395.600 C 245.564 395.600,246.464 395.420,246.600 395.200 C 246.736 394.980,247.456 394.800,248.200 394.800 C 248.944 394.800,249.664 394.620,249.800 394.400 C 249.936 394.180,250.476 394.000,251.000 394.000 C 251.524 394.000,252.064 393.820,252.200 393.600 C 252.336 393.380,253.056 393.200,253.800 393.200 C 254.544 393.200,255.264 393.020,255.400 392.800 C 255.536 392.580,256.166 392.400,256.800 392.400 C 257.434 392.400,258.064 392.220,258.200 392.000 C 258.336 391.780,258.966 391.600,259.600 391.600 C 260.234 391.600,260.864 391.420,261.000 391.200 C 261.136 390.980,261.676 390.800,262.200 390.800 C 262.724 390.800,263.264 390.620,263.400 390.400 C 263.536 390.180,264.076 390.000,264.600 390.000 C 265.124 390.000,265.664 389.820,265.800 389.600 C 265.936 389.380,266.476 389.200,267.000 389.200 C 267.524 389.200,268.064 389.020,268.200 388.800 C 268.336 388.580,268.797 388.400,269.224 388.400 C 269.651 388.400,270.000 388.220,270.000 388.000 C 270.000 387.780,270.540 387.600,271.200 387.600 C 271.860 387.600,272.400 387.420,272.400 387.200 C 272.400 386.980,272.749 386.800,273.176 386.800 C 273.603 386.800,274.064 386.620,274.200 386.400 C 274.336 386.180,274.887 386.000,275.424 386.000 C 275.961 386.000,276.400 385.820,276.400 385.600 C 276.400 385.380,276.839 385.200,277.376 385.200 C 277.913 385.200,278.464 385.020,278.600 384.800 C 278.736 384.580,279.197 384.400,279.624 384.400 C 280.051 384.400,280.400 384.220,280.400 384.000 C 280.400 383.780,280.760 383.600,281.200 383.600 C 281.640 383.600,282.000 383.420,282.000 383.200 C 282.000 382.980,282.360 382.800,282.800 382.800 C 283.240 382.800,283.600 382.620,283.600 382.400 C 283.600 382.180,283.960 382.000,284.400 382.000 C 284.840 382.000,285.200 381.820,285.200 381.600 C 285.200 381.380,285.472 381.200,285.805 381.200 C 286.138 381.200,286.723 381.041,287.105 380.846 C 287.791 380.496,292.154 378.312,293.897 377.446 C 294.390 377.201,294.795 376.865,294.797 376.700 C 294.799 376.535,295.160 376.400,295.600 376.400 C 296.040 376.400,296.400 376.220,296.400 376.000 C 296.400 375.780,296.760 375.600,297.200 375.600 C 297.640 375.600,298.000 375.420,298.000 375.200 C 298.000 374.980,298.360 374.800,298.800 374.800 C 299.240 374.800,299.600 374.620,299.600 374.400 C 299.600 374.180,299.836 374.000,300.125 374.000 C 300.413 374.000,301.036 373.640,301.508 373.200 C 301.980 372.760,302.604 372.400,302.895 372.400 C 303.186 372.400,303.683 372.040,304.000 371.600 C 304.317 371.160,304.897 370.800,305.288 370.800 C 305.680 370.800,306.000 370.620,306.000 370.400 C 306.000 370.180,306.320 370.000,306.712 370.000 C 307.103 370.000,307.683 369.640,308.000 369.200 C 308.317 368.760,308.857 368.400,309.200 368.400 C 309.543 368.400,310.083 368.040,310.400 367.600 C 310.717 367.160,311.257 366.800,311.600 366.800 C 311.943 366.800,312.483 366.440,312.800 366.000 C 313.117 365.560,313.562 365.200,313.788 365.199 C 314.015 365.199,314.830 364.659,315.600 364.000 C 316.370 363.341,317.185 362.801,317.412 362.801 C 317.638 362.800,318.083 362.440,318.400 362.000 C 318.717 361.560,319.180 361.200,319.429 361.200 C 319.678 361.200,320.446 360.660,321.137 360.000 C 321.828 359.340,322.543 358.800,322.726 358.800 C 322.909 358.800,324.022 357.900,325.200 356.800 C 326.378 355.700,327.501 354.800,327.697 354.800 C 327.892 354.800,328.929 353.900,330.000 352.800 C 331.071 351.700,332.137 350.800,332.368 350.800 C 332.898 350.800,351.600 332.125,351.600 331.596 C 351.600 331.380,352.500 330.285,353.600 329.161 C 354.700 328.038,355.600 326.943,355.600 326.728 C 355.600 326.513,356.320 325.646,357.200 324.800 C 358.080 323.954,358.800 323.051,358.800 322.792 C 358.800 322.533,359.340 321.817,360.000 321.200 C 360.660 320.583,361.200 319.880,361.200 319.636 C 361.200 319.392,361.740 318.628,362.400 317.937 C 363.060 317.246,363.600 316.478,363.600 316.229 C 363.600 315.980,363.960 315.517,364.400 315.200 C 364.840 314.883,365.200 314.343,365.200 314.000 C 365.200 313.657,365.560 313.117,366.000 312.800 C 366.440 312.483,366.800 311.943,366.800 311.600 C 366.800 311.257,367.160 310.717,367.600 310.400 C 368.040 310.083,368.400 309.543,368.400 309.200 C 368.400 308.857,368.760 308.317,369.200 308.000 C 369.640 307.683,370.000 307.103,370.000 306.712 C 370.000 306.320,370.180 306.000,370.400 306.000 C 370.620 306.000,370.800 305.764,370.800 305.475 C 370.800 305.187,371.160 304.564,371.600 304.092 C 372.040 303.620,372.400 302.956,372.400 302.617 C 372.400 302.278,372.580 302.000,372.800 302.000 C 373.020 302.000,373.200 301.680,373.200 301.288 C 373.200 300.897,373.560 300.317,374.000 300.000 C 374.440 299.683,374.800 299.103,374.800 298.712 C 374.800 298.320,374.980 298.000,375.200 298.000 C 375.420 298.000,375.600 297.640,375.600 297.200 C 375.600 296.760,375.780 296.400,376.000 296.400 C 376.220 296.400,376.400 296.040,376.400 295.600 C 376.400 295.160,376.580 294.800,376.800 294.800 C 377.020 294.800,377.200 294.440,377.200 294.000 C 377.200 293.560,377.380 293.200,377.600 293.200 C 377.820 293.200,378.004 292.975,378.009 292.700 C 378.014 292.425,378.370 291.750,378.800 291.200 C 379.230 290.650,379.586 289.795,379.591 289.300 C 379.596 288.805,379.780 288.400,380.000 288.400 C 380.220 288.400,380.400 288.040,380.400 287.600 C 380.400 287.160,380.580 286.800,380.800 286.800 C 381.020 286.800,381.200 286.440,381.200 286.000 C 381.200 285.560,381.380 285.200,381.600 285.200 C 381.820 285.200,382.000 284.840,382.000 284.400 C 382.000 283.960,382.180 283.600,382.400 283.600 C 382.620 283.600,382.800 283.240,382.800 282.800 C 382.800 282.360,382.980 282.000,383.200 282.000 C 383.420 282.000,383.600 281.640,383.600 281.200 C 383.600 280.760,383.780 280.400,384.000 280.400 C 384.220 280.400,384.400 279.860,384.400 279.200 C 384.400 278.540,384.580 278.000,384.800 278.000 C 385.020 278.000,385.200 277.640,385.200 277.200 C 385.200 276.760,385.380 276.400,385.600 276.400 C 385.820 276.400,386.000 275.961,386.000 275.424 C 386.000 274.887,386.180 274.336,386.400 274.200 C 386.620 274.064,386.800 273.603,386.800 273.176 C 386.800 272.749,386.980 272.400,387.200 272.400 C 387.420 272.400,387.600 271.961,387.600 271.424 C 387.600 270.887,387.780 270.336,388.000 270.200 C 388.220 270.064,388.400 269.603,388.400 269.176 C 388.400 268.749,388.580 268.400,388.800 268.400 C 389.020 268.400,389.200 267.860,389.200 267.200 C 389.200 266.540,389.380 266.000,389.600 266.000 C 389.820 266.000,390.000 265.460,390.000 264.800 C 390.000 264.140,390.180 263.600,390.400 263.600 C 390.620 263.600,390.800 263.251,390.800 262.824 C 390.800 262.397,390.980 261.936,391.200 261.800 C 391.420 261.664,391.600 261.113,391.600 260.576 C 391.600 260.039,391.780 259.600,392.000 259.600 C 392.220 259.600,392.400 259.060,392.400 258.400 C 392.400 257.740,392.580 257.200,392.800 257.200 C 393.020 257.200,393.200 256.840,393.200 256.400 C 393.200 255.960,393.380 255.600,393.600 255.600 C 393.820 255.600,394.000 255.251,394.000 254.824 C 394.000 254.397,394.180 253.936,394.400 253.800 C 394.620 253.664,394.800 253.113,394.800 252.576 C 394.800 252.039,394.980 251.600,395.200 251.600 C 395.420 251.600,395.600 251.060,395.600 250.400 C 395.600 249.740,395.780 249.200,396.000 249.200 C 396.220 249.200,396.400 248.840,396.400 248.400 C 396.400 247.960,396.580 247.600,396.800 247.600 C 397.020 247.600,397.200 247.060,397.200 246.400 C 397.200 245.740,397.380 245.200,397.600 245.200 C 397.820 245.200,398.000 244.840,398.000 244.400 C 398.000 243.960,398.180 243.600,398.400 243.600 C 398.620 243.600,398.800 243.351,398.800 243.046 C 398.800 242.741,399.069 241.976,399.398 241.346 C 400.510 239.213,400.227 234.000,399.000 234.000 C 397.957 234.000,397.507 232.352,398.400 231.800 C 398.620 231.664,398.800 231.149,398.800 230.656 C 398.800 230.163,399.025 229.535,399.300 229.260 C 400.030 228.530,400.030 174.270,399.300 173.540 C 399.007 173.247,398.800 172.007,398.800 170.544 C 398.800 169.171,398.620 167.936,398.400 167.800 C 398.180 167.664,398.000 166.764,398.000 165.800 C 398.000 164.836,397.820 163.936,397.600 163.800 C 397.380 163.664,397.200 162.764,397.200 161.800 C 397.200 160.836,397.020 159.936,396.800 159.800 C 396.580 159.664,396.400 158.854,396.400 158.000 C 396.400 157.146,396.220 156.336,396.000 156.200 C 395.780 156.064,395.600 155.153,395.600 154.176 C 395.600 153.199,395.420 152.400,395.200 152.400 C 394.980 152.400,394.800 151.781,394.800 151.024 C 394.800 150.267,394.620 149.536,394.400 149.400 C 394.180 149.264,394.000 148.544,394.000 147.800 C 394.000 147.056,393.820 146.336,393.600 146.200 C 393.380 146.064,393.200 145.524,393.200 145.000 C 393.200 144.476,393.020 143.936,392.800 143.800 C 392.580 143.664,392.400 143.021,392.400 142.371 C 392.400 141.721,392.220 140.832,392.000 140.395 C 391.780 139.958,391.420 139.242,391.200 138.805 C 390.980 138.368,390.800 137.569,390.800 137.029 C 390.800 136.489,390.620 135.936,390.400 135.800 C 390.180 135.664,390.000 135.203,390.000 134.776 C 390.000 134.349,389.820 134.000,389.600 134.000 C 389.380 134.000,389.200 133.460,389.200 132.800 C 389.200 132.140,389.020 131.600,388.800 131.600 C 388.580 131.600,388.400 131.060,388.400 130.400 C 388.400 129.740,388.220 129.200,388.000 129.200 C 387.780 129.200,387.600 128.840,387.600 128.400 C 387.600 127.960,387.420 127.600,387.200 127.600 C 386.980 127.600,386.800 127.161,386.800 126.624 C 386.800 126.087,386.620 125.536,386.400 125.400 C 386.180 125.264,386.000 124.803,386.000 124.376 C 386.000 123.949,385.820 123.600,385.600 123.600 C 385.380 123.600,385.200 123.161,385.200 122.624 C 385.200 122.087,385.020 121.536,384.800 121.400 C 384.580 121.264,384.400 120.803,384.400 120.376 C 384.400 119.949,384.220 119.600,384.000 119.600 C 383.780 119.600,383.600 119.240,383.600 118.800 C 383.600 118.360,383.420 118.000,383.200 118.000 C 382.980 118.000,382.800 117.735,382.800 117.412 C 382.800 117.089,382.440 116.183,382.000 115.400 C 381.560 114.617,381.200 113.621,381.200 113.188 C 381.200 112.755,381.020 112.400,380.800 112.400 C 380.580 112.400,380.400 112.040,380.400 111.600 C 380.400 111.160,380.220 110.800,380.000 110.800 C 379.780 110.800,379.600 110.455,379.600 110.033 C 379.600 109.612,379.465 109.207,379.300 109.133 C 379.135 109.060,378.567 108.145,378.037 107.100 C 377.508 106.055,376.923 105.200,376.737 105.200 C 376.552 105.200,376.400 104.840,376.400 104.400 C 376.400 103.960,376.265 103.599,376.100 103.597 C 375.741 103.593,374.800 101.656,374.800 100.920 C 374.800 100.634,374.620 100.400,374.400 100.400 C 374.180 100.400,374.000 100.164,374.000 99.875 C 374.000 99.587,373.640 98.964,373.200 98.492 C 372.760 98.020,372.400 97.356,372.400 97.017 C 372.400 96.678,372.220 96.400,372.000 96.400 C 371.780 96.400,371.600 96.164,371.600 95.875 C 371.600 95.587,371.240 94.964,370.800 94.492 C 370.360 94.020,370.000 93.396,370.000 93.105 C 370.000 92.814,369.640 92.317,369.200 92.000 C 368.760 91.683,368.400 91.143,368.400 90.800 C 368.400 90.457,368.040 89.917,367.600 89.600 C 367.160 89.283,366.800 88.703,366.800 88.312 C 366.800 87.920,366.650 87.600,366.468 87.600 C 366.285 87.600,365.881 87.105,365.570 86.500 C 365.260 85.895,364.689 85.109,364.303 84.753 C 363.916 84.397,363.600 83.929,363.600 83.712 C 363.600 83.496,363.060 82.754,362.400 82.063 C 361.740 81.372,361.200 80.608,361.200 80.364 C 361.200 80.120,360.660 79.417,360.000 78.800 C 359.340 78.183,358.800 77.467,358.800 77.208 C 358.800 76.949,358.080 76.046,357.200 75.200 C 356.320 74.354,355.600 73.460,355.600 73.212 C 355.600 72.964,354.340 71.519,352.800 70.000 C 351.260 68.481,350.000 67.058,350.000 66.836 C 350.000 66.334,334.559 50.800,334.060 50.800 C 333.860 50.800,332.213 49.360,330.400 47.600 C 328.587 45.840,326.928 44.400,326.712 44.400 C 326.497 44.400,325.817 43.860,325.200 43.200 C 324.583 42.540,323.863 42.000,323.600 42.000 C 323.337 42.000,322.617 41.460,322.000 40.800 C 321.383 40.140,320.663 39.600,320.400 39.600 C 320.137 39.600,319.417 39.060,318.800 38.400 C 318.183 37.740,317.463 37.200,317.200 37.200 C 316.937 37.200,316.217 36.660,315.600 36.000 C 314.983 35.340,314.231 34.800,313.928 34.800 C 313.625 34.800,313.117 34.440,312.800 34.000 C 312.483 33.560,311.943 33.200,311.600 33.200 C 311.257 33.200,310.717 32.840,310.400 32.400 C 310.083 31.960,309.543 31.600,309.200 31.600 C 308.857 31.600,308.317 31.240,308.000 30.800 C 307.683 30.360,307.186 30.000,306.895 30.000 C 306.604 30.000,305.980 29.640,305.508 29.200 C 305.036 28.760,304.413 28.400,304.125 28.400 C 303.836 28.400,303.600 28.220,303.600 28.000 C 303.600 27.780,303.240 27.600,302.800 27.600 C 302.360 27.600,302.000 27.420,302.000 27.200 C 302.000 26.980,301.764 26.800,301.475 26.800 C 301.187 26.800,300.564 26.440,300.092 26.000 C 299.620 25.560,298.956 25.200,298.617 25.200 C 298.278 25.200,298.000 25.020,298.000 24.800 C 298.000 24.580,297.640 24.400,297.200 24.400 C 296.760 24.400,296.400 24.220,296.400 24.000 C 296.400 23.780,296.055 23.600,295.633 23.600 C 295.212 23.600,294.807 23.465,294.733 23.300 C 294.602 23.005,293.147 22.184,289.600 20.403 C 288.610 19.906,287.487 19.342,287.105 19.150 C 286.723 18.957,286.138 18.800,285.805 18.800 C 285.472 18.800,285.200 18.620,285.200 18.400 C 285.200 18.180,284.840 18.000,284.400 18.000 C 283.960 18.000,283.600 17.820,283.600 17.600 C 283.600 17.380,283.240 17.200,282.800 17.200 C 282.360 17.200,282.000 17.020,282.000 16.800 C 282.000 16.580,281.640 16.400,281.200 16.400 C 280.760 16.400,280.400 16.220,280.400 16.000 C 280.400 15.780,280.051 15.600,279.624 15.600 C 279.197 15.600,278.736 15.420,278.600 15.200 C 278.464 14.980,277.913 14.800,277.376 14.800 C 276.839 14.800,276.400 14.620,276.400 14.400 C 276.400 14.180,276.051 14.000,275.624 14.000 C 275.197 14.000,274.736 13.820,274.600 13.600 C 274.464 13.380,273.913 13.200,273.376 13.200 C 272.839 13.200,272.400 13.020,272.400 12.800 C 272.400 12.580,271.961 12.400,271.424 12.400 C 270.887 12.400,270.336 12.220,270.200 12.000 C 270.064 11.780,269.603 11.600,269.176 11.600 C 268.749 11.600,268.400 11.420,268.400 11.200 C 268.400 10.980,267.860 10.800,267.200 10.800 C 266.540 10.800,266.000 10.620,266.000 10.400 C 266.000 10.180,265.460 10.000,264.800 10.000 C 264.140 10.000,263.600 9.820,263.600 9.600 C 263.600 9.380,263.071 9.200,262.424 9.200 C 261.777 9.200,261.136 9.020,261.000 8.800 C 260.864 8.580,260.324 8.400,259.800 8.400 C 259.276 8.400,258.736 8.220,258.600 8.000 C 258.464 7.780,257.733 7.600,256.976 7.600 C 256.219 7.600,255.600 7.420,255.600 7.200 C 255.600 6.980,255.071 6.800,254.424 6.800 C 253.777 6.800,253.136 6.620,253.000 6.400 C 252.864 6.180,252.144 6.000,251.400 6.000 C 250.656 6.000,249.936 5.820,249.800 5.600 C 249.664 5.380,248.933 5.200,248.176 5.200 C 247.419 5.200,246.800 5.020,246.800 4.800 C 246.800 4.580,245.911 4.400,244.824 4.400 C 243.737 4.400,242.736 4.220,242.600 4.000 C 242.464 3.780,241.553 3.600,240.576 3.600 C 239.599 3.600,238.800 3.420,238.800 3.200 C 238.800 2.980,237.900 2.800,236.800 2.800 C 235.700 2.800,234.800 2.620,234.800 2.400 C 234.800 2.180,233.911 2.000,232.824 2.000 C 231.737 2.000,230.736 1.820,230.600 1.600 C 230.464 1.380,229.319 1.200,228.056 1.200 C 226.753 1.200,225.544 0.984,225.260 0.700 C 224.769 0.209,186.025 -0.132,177.202 0.278 M209.880 14.768 C 210.936 14.970,212.970 15.348,214.400 15.608 C 218.570 16.365,227.574 19.379,231.225 21.239 C 236.219 23.784,242.995 31.194,246.003 37.400 C 246.323 38.060,246.981 39.230,247.465 40.000 C 248.289 41.309,249.686 44.732,250.742 48.028 C 250.994 48.814,251.200 50.400,251.200 51.552 C 251.200 53.240,251.421 53.934,252.336 55.123 C 253.401 56.509,253.895 57.552,255.590 62.000 C 255.967 62.990,256.505 64.340,256.786 65.000 C 257.728 67.214,259.176 72.984,259.194 74.600 C 259.224 77.257,259.769 77.508,260.778 75.330 C 264.246 67.840,271.040 58.456,277.883 51.704 C 282.221 47.425,285.756 45.471,291.800 44.013 C 293.780 43.536,296.030 42.989,296.800 42.799 C 305.871 40.555,316.957 41.859,318.172 45.313 C 320.259 51.247,307.419 70.480,297.749 75.905 C 288.418 81.139,267.183 85.814,261.613 83.860 C 259.451 83.102,259.215 83.339,259.206 86.280 C 259.203 87.424,259.038 89.224,258.841 90.280 C 258.643 91.336,258.258 93.460,257.985 95.000 C 257.287 98.934,256.113 103.518,253.531 112.400 C 253.307 113.170,252.883 114.340,252.589 115.000 C 252.295 115.660,251.784 117.010,251.453 118.000 C 250.053 122.197,248.373 126.543,247.202 128.997 L 245.948 131.624 247.774 133.655 C 248.778 134.772,249.600 135.957,249.600 136.289 C 249.600 136.756,249.892 136.831,250.900 136.626 C 255.016 135.787,257.532 135.884,259.355 136.953 C 261.392 138.146,264.000 141.008,264.000 142.048 C 264.000 143.071,264.421 143.190,266.279 142.694 C 269.688 141.784,277.145 145.538,275.608 147.390 C 275.156 147.935,270.804 147.993,236.668 147.902 L 198.238 147.800 197.521 145.800 C 195.161 139.222,199.540 133.281,206.467 133.662 L 208.983 133.800 209.913 132.115 C 214.086 124.555,224.529 123.058,231.169 129.067 L 233.640 131.304 235.485 130.715 L 237.329 130.126 240.658 123.763 C 244.346 116.715,244.645 115.600,242.851 115.600 C 236.677 115.600,217.638 106.917,213.045 102.007 C 209.103 97.792,206.995 89.492,208.640 84.664 C 209.462 82.252,210.270 81.840,213.618 82.120 C 217.322 82.431,226.873 85.724,230.009 87.771 C 230.784 88.277,232.175 89.077,233.100 89.549 C 237.677 91.884,244.788 103.004,244.802 107.848 C 244.806 109.151,245.651 111.711,245.957 111.348 C 246.297 110.945,249.161 104.031,250.327 100.800 C 250.763 99.590,251.658 97.160,252.316 95.400 C 257.028 82.782,256.910 74.833,251.793 60.000 C 250.053 54.955,250.105 55.017,248.096 55.619 C 242.295 57.357,217.200 50.096,208.941 44.290 C 202.018 39.423,195.590 23.273,198.151 17.182 C 199.218 14.644,204.047 13.650,209.880 14.768 M205.600 22.748 C 205.600 22.986,206.095 23.482,206.700 23.850 C 207.305 24.217,209.575 25.675,211.744 27.091 C 213.914 28.506,216.254 29.983,216.944 30.373 C 219.175 31.634,224.562 35.692,229.990 40.200 C 243.251 51.214,243.588 51.486,245.806 52.973 C 248.154 54.547,249.535 54.864,250.111 53.962 C 251.383 51.967,248.129 48.353,236.864 39.247 C 230.509 34.111,217.827 26.910,210.054 24.024 C 208.374 23.401,206.685 22.761,206.300 22.602 C 205.887 22.432,205.600 22.492,205.600 22.748 M301.800 54.380 C 285.973 60.300,269.360 70.008,261.755 77.782 C 256.768 82.880,263.271 82.614,269.800 77.452 C 270.680 76.757,272.570 75.384,274.000 74.403 C 275.430 73.422,278.711 71.040,281.291 69.110 C 286.221 65.423,289.028 63.544,293.000 61.273 C 298.590 58.078,305.202 54.383,306.297 53.842 C 306.790 53.599,307.195 53.265,307.197 53.100 C 307.203 52.548,305.828 52.873,301.800 54.380 M98.633 86.199 C 107.688 88.111,108.851 89.453,110.417 99.800 C 111.297 105.614,111.547 107.234,112.547 113.600 C 112.876 115.690,113.261 118.210,113.403 119.200 C 113.545 120.190,113.998 123.250,114.408 126.000 C 114.819 128.750,115.717 134.870,116.404 139.600 C 117.092 144.330,118.180 151.620,118.824 155.800 C 119.468 159.980,120.449 166.640,121.004 170.600 C 121.560 174.560,122.273 179.240,122.590 181.000 C 123.169 184.223,124.193 191.188,124.795 196.000 C 125.228 199.461,126.258 206.312,127.219 212.131 C 127.648 214.733,128.012 217.613,128.027 218.531 L 128.054 220.200 128.612 218.200 C 129.342 215.583,130.212 211.942,130.761 209.200 C 131.004 207.990,131.472 205.695,131.801 204.100 C 132.390 201.246,133.233 197.138,133.956 193.600 C 134.158 192.610,134.510 190.810,134.738 189.600 C 135.810 183.908,136.116 182.367,136.801 179.200 C 137.603 175.494,138.193 172.608,138.844 169.200 C 139.076 167.990,139.420 166.280,139.609 165.400 C 139.798 164.520,140.334 161.730,140.800 159.200 C 141.653 154.571,142.152 152.184,142.804 149.600 C 142.999 148.830,143.538 146.130,144.003 143.600 C 144.468 141.070,145.002 138.280,145.191 137.400 C 145.380 136.520,145.738 134.720,145.987 133.400 C 146.753 129.328,147.219 127.058,147.587 125.600 C 147.923 124.267,148.476 121.546,149.213 117.600 C 149.398 116.610,149.723 114.900,149.936 113.800 C 150.149 112.700,150.529 110.720,150.780 109.400 C 151.031 108.080,151.576 105.470,151.990 103.600 C 152.715 100.329,152.977 99.049,153.992 93.800 C 154.247 92.480,154.624 90.749,154.828 89.954 C 155.033 89.158,155.200 88.069,155.200 87.534 C 155.200 85.580,154.998 85.600,174.480 85.600 L 192.800 85.600 192.800 87.074 C 192.800 88.043,193.102 88.870,193.681 89.486 L 194.562 90.424 193.666 95.112 C 193.173 97.690,192.526 100.880,192.227 102.200 C 190.420 110.182,189.942 112.448,189.609 114.600 C 189.405 115.920,188.772 118.980,188.202 121.400 C 186.785 127.423,185.337 134.181,184.388 139.200 C 183.951 141.510,183.312 144.480,182.968 145.800 C 182.625 147.120,182.105 149.370,181.814 150.800 C 180.268 158.390,177.904 169.683,176.790 174.800 C 176.095 177.990,174.833 183.930,173.985 188.000 C 172.299 196.091,170.602 203.807,170.026 206.000 C 169.824 206.770,169.092 210.190,168.399 213.600 C 166.119 224.823,163.271 238.506,162.031 244.200 C 161.360 247.280,160.258 252.500,159.582 255.800 C 158.906 259.100,157.827 264.050,157.185 266.800 C 156.543 269.550,155.729 273.326,155.376 275.191 C 155.023 277.056,154.489 279.171,154.188 279.891 L 153.641 281.200 139.243 281.200 C 125.400 281.200,124.824 281.170,124.297 280.417 C 123.976 279.958,123.050 279.522,122.069 279.365 C 120.280 279.078,120.264 279.053,119.842 275.800 C 119.729 274.920,119.446 273.030,119.214 271.600 C 118.983 270.170,118.607 267.740,118.379 266.200 C 117.871 262.778,117.426 260.156,116.817 257.000 C 116.562 255.680,116.192 253.520,115.994 252.200 C 115.797 250.880,115.438 248.630,115.197 247.200 C 114.956 245.770,114.597 243.430,114.400 242.000 C 114.203 240.570,113.865 238.320,113.649 237.000 C 112.639 230.820,112.372 229.248,111.979 227.200 C 111.747 225.990,111.394 223.920,111.196 222.600 C 110.997 221.280,110.660 219.120,110.446 217.800 C 109.778 213.677,109.179 209.893,108.800 207.400 C 108.401 204.779,107.828 201.426,107.193 198.000 C 106.968 196.790,106.616 194.630,106.409 193.200 C 106.203 191.770,105.838 189.430,105.599 188.000 C 105.360 186.570,104.993 184.275,104.782 182.900 C 104.572 181.525,104.228 179.275,104.018 177.900 C 103.561 174.918,102.957 171.413,102.379 168.400 C 102.147 167.190,101.794 165.120,101.596 163.800 C 100.913 159.256,100.408 156.595,99.852 154.600 L 99.295 152.600 99.000 154.600 C 98.605 157.270,95.381 172.751,93.001 183.400 C 92.657 184.940,91.495 190.430,90.419 195.600 C 89.343 200.770,88.254 205.900,87.999 207.000 C 87.744 208.100,86.561 213.680,85.372 219.400 C 84.182 225.120,82.934 230.970,82.599 232.400 C 82.264 233.830,80.911 240.254,79.592 246.675 C 78.273 253.096,77.108 258.586,77.002 258.875 C 76.665 259.792,74.151 271.902,73.032 278.000 C 72.447 281.187,73.636 280.986,54.594 281.112 C 37.915 281.223,37.614 281.211,37.116 280.414 C 36.769 279.858,35.995 279.521,34.661 279.344 L 32.714 279.086 32.992 277.643 C 33.535 274.824,33.918 272.948,34.798 268.800 C 35.288 266.490,35.768 264.150,35.864 263.600 C 36.022 262.702,37.137 257.690,38.000 254.000 C 38.319 252.636,38.628 251.122,39.594 246.200 C 39.853 244.880,40.222 243.080,40.413 242.200 C 40.604 241.320,40.940 239.700,41.158 238.600 C 41.377 237.500,42.008 234.620,42.561 232.200 C 43.114 229.780,43.847 226.360,44.190 224.600 C 44.533 222.840,44.976 220.680,45.174 219.800 C 45.373 218.920,45.746 217.120,46.004 215.800 C 46.262 214.480,46.826 211.870,47.258 210.000 C 48.255 205.686,48.622 203.985,49.200 201.000 C 49.456 199.680,49.827 197.880,50.026 197.000 C 50.224 196.120,50.681 193.960,51.041 192.200 C 51.402 190.440,51.865 188.280,52.070 187.400 C 52.276 186.520,52.591 185.080,52.770 184.200 C 53.790 179.204,54.455 176.017,54.774 174.600 C 54.973 173.720,55.346 171.920,55.604 170.600 C 55.862 169.280,56.426 166.670,56.858 164.800 C 57.855 160.486,58.222 158.785,58.800 155.800 C 59.056 154.480,59.429 152.680,59.629 151.800 C 59.829 150.920,60.466 147.860,61.044 145.000 C 61.622 142.140,62.243 139.170,62.425 138.400 C 62.970 136.086,64.381 129.550,64.842 127.200 C 65.080 125.990,65.421 124.280,65.600 123.400 C 65.779 122.520,66.113 120.810,66.342 119.600 C 66.571 118.390,67.048 116.320,67.402 115.000 C 67.756 113.680,68.152 111.468,68.282 110.084 L 68.519 107.569 65.359 109.434 C 46.246 120.720,36.403 138.685,36.339 162.400 C 36.321 169.266,36.903 175.200,37.595 175.200 C 38.070 175.200,38.922 178.304,38.646 179.025 C 37.994 180.723,29.629 179.166,23.400 176.185 C 13.547 171.472,10.200 165.441,10.200 152.400 C 10.200 124.340,33.550 95.857,63.000 87.990 C 67.661 86.745,68.978 86.460,72.000 86.044 C 78.966 85.086,93.766 85.172,98.633 86.199 M216.800 90.968 C 216.800 92.324,224.706 101.260,229.400 105.210 C 231.711 107.154,237.156 111.200,237.476 111.211 C 237.654 111.217,238.507 111.757,239.371 112.411 C 241.862 114.296,244.400 113.915,244.400 111.656 C 244.400 110.449,241.627 107.782,238.200 105.695 C 231.140 101.395,227.010 98.395,219.481 92.100 C 217.307 90.282,216.800 90.068,216.800 90.968 M321.200 149.384 C 326.880 150.818,329.373 152.168,332.201 155.342 C 334.637 158.077,334.890 158.045,335.562 154.919 C 335.836 153.643,336.188 152.060,336.345 151.400 L 336.630 150.200 354.999 150.200 L 373.367 150.200 373.632 151.494 C 373.777 152.206,374.310 153.123,374.816 153.532 C 375.862 154.379,376.016 153.106,373.378 165.400 C 372.575 169.140,371.582 173.820,371.171 175.800 C 368.353 189.375,363.005 214.338,361.874 219.200 C 361.336 221.510,360.681 224.660,360.418 226.200 C 359.891 229.277,358.378 236.671,357.173 242.050 C 355.489 249.567,356.580 254.662,360.199 256.174 C 369.582 260.094,379.247 252.160,384.774 236.000 L 385.800 233.000 391.000 233.000 L 396.200 233.000 396.200 234.428 C 396.200 235.255,396.495 236.152,396.900 236.557 C 397.856 237.513,397.837 237.610,395.766 242.600 C 394.762 245.020,393.797 247.450,393.622 248.000 C 393.066 249.751,388.786 257.318,387.062 259.599 C 386.148 260.809,384.924 262.540,384.343 263.446 C 383.761 264.352,381.686 266.692,379.731 268.647 C 359.478 288.900,329.721 287.332,321.190 265.562 C 319.942 262.377,319.843 262.362,317.524 265.020 C 314.312 268.703,309.683 273.042,306.600 275.259 C 290.962 286.505,269.121 284.922,257.204 271.679 C 255.149 269.395,254.042 267.809,250.544 262.139 C 250.125 261.459,249.948 261.547,248.344 263.233 C 247.385 264.242,245.755 265.952,244.723 267.033 C 224.509 288.209,192.569 288.029,182.120 266.680 C 179.671 261.675,179.047 258.262,179.038 249.800 C 179.031 242.761,179.190 241.037,180.437 234.600 C 180.650 233.500,181.015 231.610,181.249 230.400 C 181.482 229.190,182.026 226.670,182.458 224.800 C 183.558 220.039,183.929 218.353,184.133 217.200 C 184.381 215.796,186.819 204.094,187.217 202.400 C 187.397 201.630,188.009 198.750,188.576 196.000 C 189.143 193.250,189.771 190.280,189.971 189.400 C 190.171 188.520,190.546 186.720,190.804 185.400 C 191.062 184.080,191.626 181.470,192.058 179.600 C 193.158 174.839,193.529 173.153,193.733 172.000 C 193.975 170.626,196.412 158.926,196.815 157.200 C 196.995 156.430,197.423 154.551,197.766 153.025 C 198.109 151.499,198.538 150.102,198.719 149.921 C 198.900 149.740,207.227 149.639,217.224 149.696 L 235.400 149.800 235.522 151.480 C 235.615 152.757,235.840 153.222,236.459 153.419 C 237.597 153.780,236.703 159.452,232.749 176.985 C 232.300 178.973,231.059 184.830,229.991 190.000 C 228.923 195.170,227.674 201.110,227.214 203.200 C 226.200 207.810,223.039 222.634,220.518 234.600 C 217.626 248.327,217.842 253.139,221.418 254.633 C 230.793 258.550,246.392 247.829,246.403 237.462 C 246.413 228.554,249.545 211.707,252.874 202.656 C 253.533 200.865,254.215 198.950,254.390 198.400 C 262.417 173.225,282.221 153.919,304.800 149.257 C 307.686 148.661,318.674 148.746,321.200 149.384 M320.530 167.218 C 308.455 169.605,294.310 191.391,289.766 214.600 C 289.421 216.360,288.892 219.060,288.590 220.600 C 286.371 231.930,286.570 246.023,289.018 250.864 C 293.152 259.038,305.877 256.240,313.857 245.400 C 316.301 242.081,320.000 232.052,320.000 228.745 C 320.000 228.331,320.355 226.419,320.789 224.496 C 321.505 221.319,323.524 212.181,324.389 208.200 C 324.580 207.320,324.940 205.520,325.188 204.200 C 325.767 201.124,326.295 198.634,327.265 194.400 C 328.380 189.533,328.708 188.057,329.176 185.800 C 329.404 184.700,329.953 182.121,330.395 180.070 C 332.588 169.908,329.206 165.502,320.530 167.218 " stroke="none" fill="#fbf3eb" fill-rule="evenodd"></path><path id="path2" d="M304.800 149.257 C 282.221 153.919,262.417 173.225,254.390 198.400 C 254.215 198.950,253.533 200.865,252.874 202.656 C 250.277 209.716,248.454 218.040,247.015 229.400 C 245.940 237.886,246.142 241.460,248.294 252.000 C 248.855 254.750,249.447 257.901,249.609 259.001 C 250.050 261.991,253.812 268.113,257.817 272.359 C 260.282 274.973,260.941 275.405,267.536 278.744 C 272.329 281.170,283.556 281.376,293.000 279.210 C 297.871 278.094,308.225 270.912,313.150 265.235 C 319.293 258.153,320.000 257.757,320.000 261.407 C 320.000 268.297,328.768 278.407,336.000 279.856 C 357.875 284.240,377.936 272.915,389.593 249.600 C 390.309 248.170,391.079 246.769,391.307 246.487 C 392.837 244.586,396.722 233.762,396.098 233.138 C 395.898 232.938,393.499 232.825,390.767 232.887 L 385.800 233.000 384.774 236.000 C 379.825 250.469,371.956 258.124,363.220 256.965 C 355.227 255.905,352.722 248.364,355.989 235.200 C 356.729 232.221,357.622 228.349,359.185 221.350 C 359.633 219.343,360.000 217.177,360.000 216.538 C 360.000 215.898,360.274 214.390,360.609 213.187 C 360.943 211.984,361.474 209.650,361.787 208.000 C 362.360 204.988,363.561 199.357,364.348 196.000 C 364.580 195.010,365.126 192.490,365.561 190.400 C 366.460 186.081,368.932 174.674,370.069 169.600 C 370.489 167.730,371.002 165.040,371.210 163.621 C 371.418 162.203,371.848 160.223,372.166 159.221 C 373.582 154.757,374.038 151.078,373.269 150.309 C 373.095 150.135,364.779 150.039,354.791 150.096 L 336.630 150.200 336.345 151.400 C 336.188 152.060,335.836 153.643,335.562 154.919 C 334.890 158.045,334.637 158.077,332.201 155.342 C 329.373 152.168,326.880 150.818,321.200 149.384 C 318.674 148.746,307.686 148.661,304.800 149.257 M325.880 166.154 C 327.637 167.057,329.446 168.873,330.686 170.976 C 331.415 172.213,331.297 175.889,330.395 180.070 C 329.953 182.121,329.404 184.700,329.176 185.800 C 328.708 188.057,328.380 189.533,327.265 194.400 C 326.295 198.634,325.767 201.124,325.188 204.200 C 324.940 205.520,324.580 207.320,324.389 208.200 C 323.524 212.181,321.505 221.319,320.789 224.496 C 320.355 226.419,320.000 228.331,320.000 228.745 C 320.000 230.451,317.909 237.563,316.522 240.572 C 309.677 255.431,293.224 260.596,287.606 249.650 C 283.203 241.071,285.013 216.852,291.316 200.000 C 295.549 188.683,300.096 179.622,303.662 175.400 C 304.034 174.960,305.038 173.744,305.894 172.699 C 311.167 166.253,320.274 163.271,325.880 166.154 " stroke="none" fill="#bc9d11" fill-rule="evenodd"></path><path id="path3" d="M200.051 15.152 C 194.172 18.285,200.240 38.173,208.941 44.290 C 217.200 50.096,242.295 57.357,248.096 55.619 C 250.105 55.017,250.053 54.955,251.793 60.000 C 256.910 74.833,257.028 82.782,252.316 95.400 C 251.658 97.160,250.763 99.590,250.327 100.800 C 249.161 104.031,246.297 110.945,245.957 111.348 C 245.651 111.711,244.806 109.151,244.802 107.848 C 244.788 103.004,237.677 91.884,233.100 89.549 C 232.175 89.077,230.784 88.277,230.009 87.771 C 226.873 85.724,217.322 82.431,213.618 82.120 C 210.270 81.840,209.462 82.252,208.640 84.664 C 206.995 89.492,209.103 97.792,213.045 102.007 C 217.638 106.917,236.677 115.600,242.851 115.600 C 244.645 115.600,244.346 116.715,240.658 123.763 L 237.329 130.126 235.485 130.715 L 233.640 131.304 231.169 129.067 C 224.529 123.058,214.086 124.555,209.913 132.115 L 208.983 133.800 206.467 133.662 C 199.540 133.281,195.161 139.222,197.521 145.800 L 198.238 147.800 236.668 147.902 C 270.804 147.993,275.156 147.935,275.608 147.390 C 277.145 145.538,269.688 141.784,266.279 142.694 C 264.421 143.190,264.000 143.071,264.000 142.048 C 264.000 141.008,261.392 138.146,259.355 136.953 C 257.532 135.884,255.016 135.787,250.900 136.626 C 249.892 136.831,249.600 136.756,249.600 136.289 C 249.600 135.957,248.778 134.772,247.774 133.655 L 245.948 131.624 247.202 128.997 C 248.373 126.543,250.053 122.197,251.453 118.000 C 251.784 117.010,252.295 115.660,252.589 115.000 C 252.883 114.340,253.307 113.170,253.531 112.400 C 256.113 103.518,257.287 98.934,257.985 95.000 C 258.258 93.460,258.643 91.336,258.841 90.280 C 259.038 89.224,259.203 87.424,259.206 86.280 C 259.215 83.339,259.451 83.102,261.613 83.860 C 267.183 85.814,288.418 81.139,297.749 75.905 C 307.419 70.480,320.259 51.247,318.172 45.313 C 316.957 41.859,305.871 40.555,296.800 42.799 C 296.030 42.989,293.780 43.536,291.800 44.013 C 285.756 45.471,282.221 47.425,277.883 51.704 C 271.040 58.456,264.246 67.840,260.778 75.330 C 259.769 77.508,259.224 77.257,259.194 74.600 C 259.176 72.984,257.728 67.214,256.786 65.000 C 256.505 64.340,255.967 62.990,255.590 62.000 C 253.895 57.552,253.401 56.509,252.336 55.123 C 251.421 53.934,251.200 53.240,251.200 51.552 C 251.200 50.400,250.994 48.814,250.742 48.028 C 249.686 44.732,248.289 41.309,247.465 40.000 C 246.981 39.230,246.323 38.060,246.003 37.400 C 242.995 31.194,236.219 23.784,231.225 21.239 C 227.574 19.379,218.570 16.365,214.400 15.608 C 212.970 15.348,210.936 14.970,209.880 14.768 C 206.611 14.141,201.579 14.338,200.051 15.152 M210.054 24.024 C 217.827 26.910,230.509 34.111,236.864 39.247 C 248.129 48.353,251.383 51.967,250.111 53.962 C 249.535 54.864,248.154 54.547,245.806 52.973 C 243.588 51.486,243.251 51.214,229.990 40.200 C 224.562 35.692,219.175 31.634,216.944 30.373 C 216.254 29.983,213.914 28.506,211.744 27.091 C 209.575 25.675,207.305 24.217,206.700 23.850 C 205.483 23.110,205.171 22.138,206.300 22.602 C 206.685 22.761,208.374 23.401,210.054 24.024 M307.197 53.100 C 307.195 53.265,306.790 53.599,306.297 53.842 C 305.202 54.383,298.590 58.078,293.000 61.273 C 289.028 63.544,286.221 65.423,281.291 69.110 C 278.711 71.040,275.430 73.422,274.000 74.403 C 272.570 75.384,270.680 76.757,269.800 77.452 C 264.438 81.691,258.578 83.005,260.425 79.554 C 261.813 76.961,272.510 68.824,281.351 63.637 C 288.649 59.356,307.211 51.788,307.197 53.100 M82.100 85.497 C 83.585 85.574,86.015 85.574,87.500 85.497 C 88.985 85.420,87.770 85.357,84.800 85.357 C 81.830 85.357,80.615 85.420,82.100 85.497 M72.200 86.000 L 71.000 86.305 72.400 86.305 C 73.170 86.305,74.340 86.168,75.000 86.000 L 76.200 85.695 74.800 85.695 C 74.030 85.695,72.860 85.832,72.200 86.000 M94.800 86.020 C 95.790 86.197,97.050 86.336,97.600 86.330 L 98.600 86.320 97.600 86.000 C 97.050 85.824,95.790 85.684,94.800 85.690 L 93.000 85.700 94.800 86.020 M155.680 86.080 C 155.416 86.344,155.203 86.929,155.206 87.380 C 155.211 88.114,155.265 88.095,155.718 87.200 L 156.223 86.200 174.186 86.096 C 188.290 86.014,192.216 86.100,192.468 86.496 C 192.698 86.859,192.789 86.804,192.794 86.300 C 192.802 85.410,156.565 85.195,155.680 86.080 M67.400 86.800 L 66.600 87.144 67.400 87.132 C 67.840 87.126,68.650 86.976,69.200 86.800 L 70.200 86.480 69.200 86.468 C 68.650 86.462,67.840 86.611,67.400 86.800 M100.000 86.800 C 101.368 87.238,102.419 87.238,101.400 86.800 C 100.960 86.611,100.240 86.462,99.800 86.468 C 99.157 86.477,99.196 86.543,100.000 86.800 M64.400 87.600 C 63.867 87.945,63.867 87.988,64.400 87.988 C 64.730 87.988,65.270 87.813,65.600 87.600 C 66.133 87.255,66.133 87.212,65.600 87.212 C 65.270 87.212,64.730 87.387,64.400 87.600 M192.253 88.600 C 191.850 90.922,191.187 94.358,190.788 96.200 C 190.597 97.080,190.246 98.790,190.008 100.000 C 188.998 105.139,188.747 106.332,188.156 108.800 C 187.403 111.940,186.824 114.594,185.713 120.000 C 185.048 123.236,184.707 124.968,184.058 128.400 C 183.829 129.610,183.389 131.590,183.081 132.800 C 182.772 134.010,182.298 136.080,182.027 137.400 C 181.434 140.294,180.989 142.397,180.460 144.800 C 180.243 145.790,179.853 147.680,179.594 149.000 C 178.689 153.614,178.308 155.425,177.535 158.800 C 176.522 163.221,176.165 164.884,175.600 167.800 C 175.344 169.120,174.970 170.965,174.768 171.900 C 174.565 172.835,174.235 174.365,174.032 175.300 C 173.830 176.235,173.451 178.080,173.190 179.400 C 172.928 180.720,172.573 182.250,172.399 182.800 C 172.226 183.350,171.879 184.880,171.628 186.200 C 171.377 187.520,171.013 189.320,170.818 190.200 C 170.624 191.080,170.253 192.880,169.994 194.200 C 169.089 198.814,168.708 200.625,167.935 204.000 C 166.760 209.132,166.481 210.400,166.000 212.800 C 165.758 214.010,165.403 215.720,165.212 216.600 C 165.021 217.480,164.654 219.280,164.396 220.600 C 164.138 221.920,163.574 224.530,163.142 226.400 C 162.145 230.714,161.778 232.415,161.200 235.400 C 160.944 236.720,160.571 238.520,160.371 239.400 C 160.171 240.280,159.534 243.340,158.956 246.200 C 158.378 249.060,157.755 252.030,157.571 252.800 C 156.761 256.189,156.370 257.943,155.962 260.000 C 155.722 261.210,155.379 262.920,155.200 263.800 C 155.021 264.680,154.683 266.390,154.449 267.600 C 154.097 269.424,153.234 273.376,152.112 278.300 L 151.907 279.200 137.053 279.246 C 128.884 279.272,122.558 279.383,122.996 279.494 C 123.433 279.605,124.029 280.034,124.318 280.448 C 124.818 281.160,125.604 281.200,139.243 281.200 L 153.641 281.200 154.188 279.891 C 154.489 279.171,155.023 277.056,155.376 275.191 C 155.729 273.326,156.543 269.550,157.185 266.800 C 157.827 264.050,158.906 259.100,159.582 255.800 C 160.258 252.500,161.360 247.280,162.031 244.200 C 163.271 238.506,166.119 224.823,168.399 213.600 C 169.092 210.190,169.824 206.770,170.026 206.000 C 170.602 203.807,172.299 196.091,173.985 188.000 C 174.833 183.930,176.095 177.990,176.790 174.800 C 177.904 169.683,180.268 158.390,181.814 150.800 C 182.105 149.370,182.625 147.120,182.968 145.800 C 183.312 144.480,183.951 141.510,184.388 139.200 C 185.337 134.181,186.785 127.423,188.202 121.400 C 188.772 118.980,189.405 115.920,189.609 114.600 C 189.942 112.448,190.420 110.182,192.227 102.200 C 192.526 100.880,193.173 97.690,193.666 95.112 L 194.562 90.424 193.721 89.512 C 193.258 89.010,192.801 88.240,192.706 87.800 C 192.589 87.266,192.439 87.533,192.253 88.600 M61.600 88.400 C 60.805 88.914,61.804 88.914,63.000 88.400 L 63.800 88.056 63.000 88.034 C 62.560 88.022,61.930 88.187,61.600 88.400 M104.833 88.121 C 105.974 88.949,107.200 89.546,107.200 89.273 C 107.200 89.084,106.742 88.720,106.181 88.464 C 105.247 88.038,104.435 87.832,104.833 88.121 M154.578 90.578 C 154.427 91.381,154.394 92.127,154.504 92.237 C 154.614 92.347,154.827 91.781,154.978 90.978 C 155.128 90.175,155.162 89.428,155.052 89.318 C 154.942 89.208,154.728 89.775,154.578 90.578 M56.800 90.000 C 56.267 90.345,56.267 90.388,56.800 90.388 C 57.130 90.388,57.670 90.213,58.000 90.000 C 58.533 89.655,58.533 89.612,58.000 89.612 C 57.670 89.612,57.130 89.787,56.800 90.000 M107.390 91.000 C 107.934 93.556,108.267 95.711,110.020 108.000 C 111.180 116.135,111.999 121.550,112.410 123.800 C 112.808 125.985,113.307 129.246,114.000 134.200 C 114.246 135.960,114.606 138.480,114.800 139.800 C 114.994 141.120,115.354 143.640,115.600 145.400 C 116.182 149.558,116.737 153.236,117.216 156.100 C 118.145 161.661,118.385 163.186,118.803 166.200 C 119.048 167.960,119.406 170.480,119.600 171.800 C 119.794 173.120,120.154 175.640,120.400 177.400 C 120.646 179.160,121.006 181.680,121.200 183.000 C 121.394 184.320,121.751 186.840,121.994 188.600 C 122.237 190.360,122.602 192.700,122.805 193.800 C 123.160 195.718,123.501 197.913,124.391 204.002 C 125.312 210.302,125.602 212.358,126.024 215.600 C 126.268 217.470,126.633 219.755,126.834 220.677 C 127.035 221.600,127.200 222.815,127.200 223.377 C 127.200 225.423,127.820 224.315,128.700 220.695 C 129.953 215.540,129.902 213.321,128.638 218.021 L 128.053 220.200 128.026 218.531 C 128.012 217.613,127.648 214.733,127.219 212.131 C 126.258 206.312,125.228 199.461,124.795 196.000 C 124.193 191.188,123.169 184.223,122.590 181.000 C 122.273 179.240,121.560 174.560,121.004 170.600 C 120.449 166.640,119.468 159.980,118.824 155.800 C 118.180 151.620,117.092 144.330,116.404 139.600 C 115.717 134.870,114.805 128.660,114.378 125.800 C 113.950 122.940,113.404 119.250,113.164 117.600 C 112.924 115.950,112.479 113.070,112.175 111.200 C 111.567 107.460,110.707 101.940,109.960 97.000 C 109.634 94.835,109.098 93.153,108.306 91.800 C 107.343 90.156,107.179 90.014,107.390 91.000 M219.481 92.100 C 227.010 98.395,231.140 101.395,238.200 105.695 C 241.627 107.782,244.400 110.449,244.400 111.656 C 244.400 113.915,241.862 114.296,239.371 112.411 C 238.507 111.757,237.654 111.217,237.476 111.211 C 236.688 111.184,229.402 105.348,225.477 101.600 C 218.779 95.203,213.846 87.388,219.481 92.100 M51.500 92.226 C 50.455 92.770,49.600 93.305,49.600 93.414 C 49.600 93.593,53.560 91.723,53.967 91.352 C 54.462 90.901,53.161 91.362,51.500 92.226 M153.778 94.578 C 153.627 95.381,153.594 96.127,153.704 96.237 C 153.814 96.347,154.027 95.781,154.178 94.978 C 154.328 94.175,154.362 93.428,154.252 93.318 C 154.142 93.208,153.928 93.775,153.778 94.578 M44.400 96.054 C 42.091 97.456,36.271 101.722,35.199 102.797 C 34.649 103.348,33.479 104.435,32.599 105.212 C 28.966 108.419,23.016 115.351,20.850 118.900 C 19.598 120.952,20.029 120.800,21.417 118.700 C 26.178 111.498,34.172 103.480,41.623 98.436 C 43.700 97.029,45.571 95.726,45.780 95.539 C 46.436 94.953,45.854 95.170,44.400 96.054 M153.022 98.622 C 152.872 99.425,152.838 100.172,152.948 100.282 C 153.058 100.392,153.272 99.825,153.422 99.022 C 153.573 98.219,153.606 97.473,153.496 97.363 C 153.386 97.253,153.173 97.819,153.022 98.622 M152.229 102.229 C 152.081 102.815,152.051 103.384,152.161 103.494 C 152.271 103.604,152.481 103.215,152.629 102.629 C 152.776 102.042,152.806 101.473,152.696 101.363 C 152.586 101.253,152.376 101.642,152.229 102.229 M65.600 105.869 C 60.790 108.219,53.063 113.739,50.663 116.540 C 50.257 117.013,49.166 118.210,48.237 119.200 C 44.753 122.914,41.170 128.816,38.992 134.426 C 38.186 136.502,37.376 138.560,37.191 139.000 C 36.500 140.649,35.993 142.884,34.831 149.424 C 34.205 152.942,34.301 166.883,34.970 169.600 C 35.683 172.500,36.788 175.705,37.239 176.180 C 38.509 177.517,33.497 178.270,30.160 177.243 C 29.522 177.047,27.920 176.660,26.600 176.383 C 22.562 175.537,19.286 173.756,16.317 170.794 C 14.842 169.322,13.833 168.487,14.074 168.939 C 15.757 172.083,24.269 177.446,29.600 178.721 C 33.336 179.614,38.355 179.783,38.646 179.025 C 38.922 178.304,38.070 175.200,37.595 175.200 C 36.903 175.200,36.321 169.266,36.339 162.400 C 36.403 138.686,46.246 120.720,65.359 109.435 L 68.518 107.569 68.249 110.461 C 68.101 112.052,68.063 113.270,68.164 113.169 C 68.340 112.993,69.600 105.651,69.600 104.804 C 69.600 104.114,68.707 104.351,65.600 105.869 M151.489 105.200 C 151.336 105.750,151.225 106.650,151.242 107.200 C 151.268 108.061,151.326 108.014,151.658 106.860 C 151.870 106.124,151.981 105.224,151.906 104.860 C 151.808 104.394,151.686 104.493,151.489 105.200 M150.578 110.178 C 150.427 110.981,150.394 111.727,150.504 111.837 C 150.614 111.947,150.827 111.381,150.978 110.578 C 151.128 109.775,151.162 109.028,151.052 108.918 C 150.942 108.808,150.728 109.375,150.578 110.178 M149.778 114.178 C 149.627 114.981,149.604 115.737,149.726 115.860 C 149.848 115.982,150.072 115.425,150.222 114.622 C 150.373 113.819,150.396 113.063,150.274 112.940 C 150.152 112.818,149.928 113.375,149.778 114.178 M67.429 114.629 C 67.281 115.215,67.251 115.784,67.361 115.894 C 67.471 116.004,67.681 115.615,67.829 115.029 C 67.976 114.442,68.006 113.873,67.896 113.763 C 67.786 113.653,67.576 114.042,67.429 114.629 M66.578 118.178 C 66.427 118.981,66.404 119.737,66.526 119.860 C 66.648 119.982,66.872 119.425,67.022 118.622 C 67.173 117.819,67.196 117.063,67.074 116.940 C 66.952 116.818,66.728 117.375,66.578 118.178 M148.978 118.578 C 148.827 119.381,148.794 120.127,148.904 120.237 C 149.014 120.347,149.227 119.781,149.378 118.978 C 149.528 118.175,149.562 117.428,149.452 117.318 C 149.342 117.208,149.128 117.775,148.978 118.578 M19.000 122.000 C 18.659 122.660,18.469 123.200,18.579 123.200 C 18.689 123.200,19.059 122.660,19.400 122.000 C 19.741 121.340,19.931 120.800,19.821 120.800 C 19.711 120.800,19.341 121.340,19.000 122.000 M65.778 122.178 C 65.627 122.981,65.594 123.727,65.704 123.837 C 65.814 123.947,66.027 123.381,66.178 122.578 C 66.328 121.775,66.362 121.028,66.252 120.918 C 66.142 120.808,65.928 121.375,65.778 122.178 M148.178 122.578 C 148.027 123.381,147.994 124.127,148.104 124.237 C 148.214 124.347,148.427 123.781,148.578 122.978 C 148.728 122.175,148.762 121.428,148.652 121.318 C 148.542 121.208,148.328 121.775,148.178 122.578 M17.386 124.900 L 16.752 126.200 17.567 125.200 C 18.352 124.237,18.608 123.600,18.210 123.600 C 18.106 123.600,17.735 124.185,17.386 124.900 M64.978 126.178 C 64.827 126.981,64.794 127.727,64.904 127.837 C 65.014 127.947,65.227 127.381,65.378 126.578 C 65.528 125.775,65.562 125.028,65.452 124.918 C 65.342 124.808,65.128 125.375,64.978 126.178 M147.473 125.753 C 147.323 126.145,147.211 126.766,147.225 127.133 C 147.242 127.575,147.381 127.474,147.637 126.834 C 147.849 126.303,147.961 125.682,147.885 125.454 C 147.809 125.227,147.624 125.361,147.473 125.753 M224.881 126.372 C 225.387 126.577,226.261 126.842,226.824 126.961 C 227.949 127.198,229.126 128.095,231.800 130.753 L 233.564 132.505 235.482 131.585 C 240.602 129.129,246.474 131.334,249.003 136.663 C 249.618 137.959,250.612 138.372,251.420 137.670 C 254.507 134.985,261.096 137.508,263.255 142.200 C 263.791 143.366,263.905 143.406,267.204 143.620 C 269.072 143.741,271.116 144.060,271.747 144.328 C 273.242 144.964,274.838 146.228,274.533 146.534 C 274.400 146.666,257.351 146.782,236.646 146.792 L 198.999 146.809 198.420 145.505 C 197.095 142.519,198.275 137.287,200.619 135.750 C 202.328 134.631,205.585 133.917,206.896 134.374 C 209.009 135.110,209.509 134.920,210.327 133.073 C 211.405 130.635,214.866 127.362,216.797 126.955 C 217.349 126.838,218.160 126.588,218.600 126.399 C 219.687 125.931,223.749 125.914,224.881 126.372 M14.589 130.589 C 13.977 132.030,13.564 133.297,13.671 133.404 C 13.778 133.511,14.343 132.396,14.926 130.926 C 16.304 127.453,16.036 127.185,14.589 130.589 M146.578 129.778 C 146.427 130.581,146.404 131.337,146.526 131.460 C 146.648 131.582,146.872 131.025,147.022 130.222 C 147.173 129.419,147.196 128.663,147.074 128.540 C 146.952 128.418,146.728 128.975,146.578 129.778 M64.200 130.000 C 64.048 130.691,64.014 131.347,64.124 131.457 C 64.234 131.567,64.448 131.091,64.600 130.400 C 64.752 129.709,64.786 129.053,64.676 128.943 C 64.566 128.833,64.352 129.309,64.200 130.000 M63.422 133.822 C 63.272 134.625,63.238 135.372,63.348 135.482 C 63.458 135.592,63.672 135.025,63.822 134.222 C 63.973 133.419,64.006 132.673,63.896 132.563 C 63.786 132.453,63.573 133.019,63.422 133.822 M145.778 134.178 C 145.627 134.981,145.594 135.727,145.704 135.837 C 145.814 135.947,146.027 135.381,146.178 134.578 C 146.328 133.775,146.362 133.028,146.252 132.918 C 146.142 132.808,145.928 133.375,145.778 134.178 M13.000 134.800 C 12.850 135.273,12.817 135.750,12.927 135.860 C 13.037 135.970,13.250 135.673,13.400 135.200 C 13.550 134.727,13.583 134.250,13.473 134.140 C 13.363 134.030,13.150 134.327,13.000 134.800 M62.673 136.953 C 62.523 137.345,62.411 137.966,62.425 138.333 C 62.442 138.775,62.581 138.674,62.837 138.034 C 63.049 137.503,63.161 136.882,63.085 136.654 C 63.009 136.427,62.824 136.561,62.673 136.953 M144.978 138.178 C 144.827 138.981,144.794 139.727,144.904 139.837 C 145.014 139.947,145.227 139.381,145.378 138.578 C 145.528 137.775,145.562 137.028,145.452 136.918 C 145.342 136.808,145.128 137.375,144.978 138.178 M11.473 139.353 C 11.323 139.745,11.211 140.366,11.225 140.733 C 11.242 141.175,11.381 141.074,11.637 140.434 C 11.849 139.903,11.961 139.282,11.885 139.054 C 11.809 138.827,11.624 138.961,11.473 139.353 M61.800 140.800 C 61.648 141.491,61.614 142.147,61.724 142.257 C 61.834 142.367,62.048 141.891,62.200 141.200 C 62.352 140.509,62.386 139.853,62.276 139.743 C 62.166 139.633,61.952 140.109,61.800 140.800 M144.222 142.222 C 144.072 143.025,144.038 143.772,144.148 143.882 C 144.258 143.992,144.472 143.425,144.622 142.622 C 144.773 141.819,144.806 141.073,144.696 140.963 C 144.586 140.853,144.373 141.419,144.222 142.222 M10.582 143.782 C 10.429 144.802,10.394 145.727,10.504 145.837 C 10.614 145.947,10.829 145.202,10.982 144.182 C 11.135 143.161,11.170 142.237,11.060 142.127 C 10.950 142.017,10.735 142.761,10.582 143.782 M61.022 144.622 C 60.872 145.425,60.838 146.172,60.948 146.282 C 61.058 146.392,61.272 145.825,61.422 145.022 C 61.573 144.219,61.606 143.473,61.496 143.363 C 61.386 143.253,61.173 143.819,61.022 144.622 M143.400 146.400 C 143.246 147.310,143.211 148.144,143.321 148.254 C 143.431 148.364,143.646 147.710,143.800 146.800 C 143.954 145.890,143.989 145.056,143.879 144.946 C 143.769 144.836,143.554 145.490,143.400 146.400 M98.027 147.900 C 96.995 152.008,96.837 152.662,96.457 154.400 C 96.241 155.390,95.863 157.280,95.618 158.600 C 95.373 159.920,95.013 161.720,94.818 162.600 C 94.624 163.480,94.254 165.280,93.996 166.600 C 93.738 167.920,93.174 170.530,92.742 172.400 C 91.616 177.275,91.296 178.722,90.800 181.200 C 90.558 182.410,90.203 184.120,90.012 185.000 C 89.821 185.880,89.454 187.680,89.196 189.000 C 88.938 190.320,88.374 192.930,87.942 194.800 C 86.945 199.114,86.578 200.815,86.000 203.800 C 85.744 205.120,85.373 206.920,85.174 207.800 C 84.976 208.680,84.519 210.840,84.159 212.600 C 83.473 215.950,83.403 216.271,82.028 222.400 C 81.559 224.490,80.984 227.190,80.751 228.400 C 80.517 229.610,80.179 231.320,80.000 232.200 C 79.821 233.080,79.483 234.790,79.249 236.000 C 78.884 237.893,78.318 240.485,76.804 247.200 C 76.405 248.966,74.026 260.399,73.556 262.800 C 73.363 263.790,73.024 265.365,72.802 266.300 C 72.581 267.235,72.220 268.765,71.999 269.700 C 71.486 271.876,70.790 275.352,70.459 277.400 L 70.200 279.000 52.600 279.206 C 42.920 279.320,35.362 279.455,35.804 279.506 C 36.246 279.558,36.836 279.966,37.115 280.412 C 37.614 281.211,37.907 281.223,54.594 281.112 C 73.636 280.986,72.447 281.187,73.032 278.000 C 74.151 271.902,76.665 259.792,77.002 258.875 C 77.108 258.586,78.273 253.096,79.592 246.675 C 80.911 240.254,82.264 233.830,82.599 232.400 C 82.934 230.970,84.182 225.120,85.372 219.400 C 86.561 213.680,87.744 208.100,87.999 207.000 C 88.254 205.900,89.343 200.770,90.419 195.600 C 91.495 190.430,92.657 184.940,93.001 183.400 C 95.386 172.730,98.606 157.265,98.999 154.600 L 99.294 152.600 99.859 154.779 C 100.987 159.128,101.038 157.637,99.955 152.000 C 99.764 151.010,99.491 149.255,99.348 148.100 C 99.026 145.497,98.645 145.439,98.027 147.900 M60.222 148.622 C 60.072 149.425,60.038 150.172,60.148 150.282 C 60.258 150.392,60.472 149.825,60.622 149.022 C 60.773 148.219,60.806 147.473,60.696 147.363 C 60.586 147.253,60.373 147.819,60.222 148.622 M10.154 152.400 C 10.154 155.150,10.218 156.275,10.296 154.900 C 10.374 153.525,10.374 151.275,10.296 149.900 C 10.218 148.525,10.154 149.650,10.154 152.400 M142.673 149.753 C 142.523 150.145,142.411 150.766,142.425 151.133 C 142.442 151.575,142.581 151.474,142.837 150.834 C 143.049 150.303,143.161 149.682,143.085 149.454 C 143.009 149.227,142.824 149.361,142.673 149.753 M198.607 149.989 C 198.472 150.208,198.087 151.605,197.751 153.093 C 197.416 154.582,196.995 156.430,196.815 157.200 C 196.412 158.926,193.975 170.626,193.733 172.000 C 193.529 173.153,193.158 174.839,192.058 179.600 C 191.626 181.470,191.062 184.080,190.804 185.400 C 190.546 186.720,190.171 188.520,189.971 189.400 C 189.771 190.280,189.143 193.250,188.576 196.000 C 188.009 198.750,187.397 201.630,187.217 202.400 C 186.819 204.094,184.381 215.796,184.133 217.200 C 183.929 218.353,183.558 220.039,182.458 224.800 C 181.511 228.900,180.827 232.324,179.540 239.400 C 178.623 244.440,178.875 256.771,179.976 260.800 C 187.214 287.264,222.196 290.632,244.723 267.033 C 250.849 260.615,250.393 262.183,248.573 253.789 C 248.047 251.363,247.430 248.033,247.201 246.389 C 246.972 244.745,246.639 242.860,246.461 242.200 L 246.138 241.000 245.419 242.509 C 242.035 249.613,233.631 255.187,226.287 255.196 C 217.744 255.206,216.849 252.013,220.518 234.600 C 223.039 222.634,226.200 207.810,227.214 203.200 C 227.674 201.110,228.923 195.170,229.991 190.000 C 231.059 184.830,232.300 178.973,232.749 176.985 C 236.703 159.452,237.597 153.780,236.459 153.419 C 235.840 153.222,235.615 152.757,235.522 151.480 L 235.400 149.800 217.126 149.696 C 205.341 149.629,198.765 149.733,198.607 149.989 M234.650 153.254 C 234.504 154.823,234.197 156.938,233.968 157.954 C 233.738 158.969,233.389 160.520,233.191 161.400 C 232.993 162.280,232.474 164.530,232.038 166.400 C 231.259 169.738,228.578 182.654,228.010 185.800 C 227.852 186.680,227.498 188.200,227.224 189.178 C 226.951 190.156,226.586 191.776,226.414 192.778 C 226.076 194.741,225.011 200.004,224.426 202.600 C 224.227 203.480,223.845 205.280,223.576 206.600 C 223.307 207.920,222.775 210.260,222.394 211.800 C 222.013 213.340,221.487 215.770,221.224 217.200 C 220.961 218.630,220.582 220.520,220.380 221.400 C 219.966 223.210,218.922 228.402,218.370 231.400 C 218.168 232.500,217.835 234.120,217.630 235.000 C 216.248 240.945,216.000 242.593,216.000 245.821 C 216.000 253.211,218.647 255.800,226.200 255.800 C 230.378 255.800,231.495 255.590,234.400 254.262 C 237.399 252.890,242.764 247.967,244.921 244.607 L 246.200 242.614 246.474 245.607 C 246.720 248.289,248.022 254.948,248.589 256.428 C 249.075 257.696,240.742 266.771,235.400 270.792 C 218.131 283.792,194.245 283.605,185.151 270.400 C 178.234 260.358,177.789 247.097,183.565 223.200 C 183.891 221.851,184.728 217.798,185.629 213.200 C 185.866 211.990,186.218 210.370,186.411 209.600 C 186.604 208.830,187.029 206.850,187.355 205.200 C 187.682 203.550,188.224 201.030,188.559 199.600 C 189.199 196.871,189.633 194.850,190.363 191.200 C 191.519 185.418,192.124 182.482,192.426 181.200 C 193.006 178.730,194.398 172.263,194.793 170.200 C 195.247 167.830,197.300 158.251,198.265 154.000 C 199.155 150.083,197.401 150.413,217.357 150.406 L 234.915 150.400 234.650 153.254 M59.378 152.578 C 59.227 153.381,59.194 154.127,59.304 154.237 C 59.414 154.347,59.627 153.781,59.778 152.978 C 59.928 152.175,59.962 151.428,59.852 151.318 C 59.742 151.208,59.528 151.775,59.378 152.578 M141.778 153.778 C 141.627 154.581,141.594 155.327,141.704 155.437 C 141.814 155.547,142.027 154.981,142.178 154.178 C 142.328 153.375,142.362 152.628,142.252 152.518 C 142.142 152.408,141.928 152.975,141.778 153.778 M373.457 153.900 C 373.348 154.285,373.144 155.230,373.002 156.000 C 372.860 156.770,372.484 158.220,372.166 159.221 C 371.848 160.223,371.418 162.203,371.210 163.621 C 371.002 165.040,370.489 167.730,370.069 169.600 C 368.932 174.674,366.460 186.081,365.561 190.400 C 365.126 192.490,364.580 195.010,364.348 196.000 C 363.561 199.357,362.360 204.988,361.787 208.000 C 361.474 209.650,360.943 211.984,360.609 213.187 C 360.274 214.390,360.000 215.898,360.000 216.538 C 360.000 217.177,359.633 219.343,359.185 221.350 C 357.612 228.397,356.727 232.227,355.988 235.200 C 353.686 244.450,354.170 250.649,357.471 254.222 C 358.092 254.894,358.393 255.164,358.140 254.822 C 356.251 252.270,355.906 247.705,357.173 242.050 C 358.378 236.671,359.891 229.277,360.418 226.200 C 360.681 224.660,361.336 221.510,361.874 219.200 C 363.005 214.338,368.353 189.375,371.171 175.800 C 371.582 173.820,372.575 169.140,373.378 165.400 C 375.862 153.824,375.759 154.474,375.205 153.806 C 374.531 152.994,373.699 153.039,373.457 153.900 M58.578 156.578 C 58.427 157.381,58.394 158.127,58.504 158.237 C 58.614 158.347,58.827 157.781,58.978 156.978 C 59.128 156.175,59.162 155.428,59.052 155.318 C 58.942 155.208,58.728 155.775,58.578 156.578 M141.022 157.822 C 140.872 158.625,140.838 159.372,140.948 159.482 C 141.058 159.592,141.272 159.025,141.422 158.222 C 141.573 157.419,141.606 156.673,141.496 156.563 C 141.386 156.453,141.173 157.019,141.022 157.822 M100.880 159.200 C 100.880 159.750,101.024 160.650,101.200 161.200 L 101.520 162.200 101.520 161.200 C 101.520 160.650,101.376 159.750,101.200 159.200 L 100.880 158.200 100.880 159.200 M10.468 159.600 C 10.462 160.150,10.611 160.960,10.800 161.400 L 11.144 162.200 11.132 161.400 C 11.126 160.960,10.976 160.150,10.800 159.600 L 10.480 158.600 10.468 159.600 M57.800 160.400 C 57.648 161.091,57.614 161.747,57.724 161.857 C 57.834 161.967,58.048 161.491,58.200 160.800 C 58.352 160.109,58.386 159.453,58.276 159.343 C 58.166 159.233,57.952 159.709,57.800 160.400 M140.222 161.822 C 140.072 162.625,140.038 163.372,140.148 163.482 C 140.258 163.592,140.472 163.025,140.622 162.222 C 140.773 161.419,140.806 160.673,140.696 160.563 C 140.586 160.453,140.373 161.019,140.222 161.822 M11.228 163.076 C 11.213 163.558,11.380 164.064,11.600 164.200 C 12.073 164.492,12.073 164.101,11.600 163.000 C 11.269 162.229,11.255 162.231,11.228 163.076 M57.029 163.829 C 56.881 164.415,56.838 164.972,56.932 165.066 C 57.027 165.160,57.224 164.758,57.371 164.171 C 57.519 163.585,57.562 163.028,57.468 162.934 C 57.373 162.840,57.176 163.242,57.029 163.829 M101.680 164.200 C 101.680 164.860,101.824 165.850,102.000 166.400 C 102.311 167.372,102.320 167.367,102.320 166.200 C 102.320 165.540,102.176 164.550,102.000 164.000 C 101.689 163.028,101.680 163.033,101.680 164.200 M139.378 166.178 C 139.227 166.981,139.194 167.727,139.304 167.837 C 139.414 167.947,139.627 167.381,139.778 166.578 C 139.928 165.775,139.962 165.028,139.852 164.918 C 139.742 164.808,139.528 165.375,139.378 166.178 M316.141 165.737 C 312.721 166.875,308.077 170.030,305.894 172.699 C 305.038 173.744,304.034 174.960,303.662 175.400 C 300.096 179.622,295.549 188.683,291.316 200.000 C 284.270 218.838,283.041 246.657,289.035 251.629 C 289.685 252.168,289.684 252.124,289.033 250.864 C 286.571 246.103,286.365 231.961,288.590 220.600 C 288.892 219.060,289.421 216.360,289.766 214.600 C 291.747 204.480,298.460 188.393,304.291 179.792 C 311.207 169.588,320.526 164.836,327.766 167.820 C 329.360 168.478,327.922 167.174,325.952 166.175 C 323.014 164.687,319.737 164.540,316.141 165.737 M56.178 167.378 C 56.027 168.181,55.994 168.927,56.104 169.037 C 56.214 169.147,56.427 168.581,56.578 167.778 C 56.728 166.975,56.762 166.228,56.652 166.118 C 56.542 166.008,56.328 166.575,56.178 167.378 M102.456 169.000 C 102.456 169.440,102.611 170.160,102.800 170.600 L 103.144 171.400 103.144 170.600 C 103.144 170.160,102.989 169.440,102.800 169.000 L 102.456 168.200 102.456 169.000 M138.578 170.178 C 138.427 170.981,138.404 171.737,138.526 171.860 C 138.648 171.982,138.872 171.425,139.022 170.622 C 139.173 169.819,139.196 169.063,139.074 168.940 C 138.952 168.818,138.728 169.375,138.578 170.178 M55.378 171.378 C 55.227 172.181,55.194 172.927,55.304 173.037 C 55.414 173.147,55.627 172.581,55.778 171.778 C 55.928 170.975,55.962 170.228,55.852 170.118 C 55.742 170.008,55.528 170.575,55.378 171.378 M103.287 173.000 C 103.283 173.660,103.424 174.650,103.600 175.200 L 103.920 176.200 103.913 175.200 C 103.909 174.650,103.768 173.660,103.600 173.000 L 103.295 171.800 103.287 173.000 M137.822 174.222 C 137.672 175.025,137.638 175.772,137.748 175.882 C 137.858 175.992,138.072 175.425,138.222 174.622 C 138.373 173.819,138.406 173.073,138.296 172.963 C 138.186 172.853,137.973 173.419,137.822 174.222 M54.600 175.200 C 54.448 175.891,54.414 176.547,54.524 176.657 C 54.634 176.767,54.848 176.291,55.000 175.600 C 55.152 174.909,55.186 174.253,55.076 174.143 C 54.966 174.033,54.752 174.509,54.600 175.200 M137.029 177.829 C 136.881 178.415,136.851 178.984,136.961 179.094 C 137.071 179.204,137.281 178.815,137.429 178.229 C 137.576 177.642,137.606 177.073,137.496 176.963 C 137.386 176.853,137.176 177.242,137.029 177.829 M104.080 178.200 C 104.080 178.860,104.224 179.850,104.400 180.400 C 104.711 181.372,104.720 181.367,104.720 180.200 C 104.720 179.540,104.576 178.550,104.400 178.000 C 104.089 177.028,104.080 177.033,104.080 178.200 M53.822 179.022 C 53.672 179.825,53.638 180.572,53.748 180.682 C 53.858 180.792,54.072 180.225,54.222 179.422 C 54.373 178.619,54.406 177.873,54.296 177.763 C 54.186 177.653,53.973 178.219,53.822 179.022 M136.200 181.600 C 136.046 182.510,136.011 183.344,136.121 183.454 C 136.231 183.564,136.446 182.910,136.600 182.000 C 136.754 181.090,136.789 180.256,136.679 180.146 C 136.569 180.036,136.354 180.690,136.200 181.600 M52.978 182.978 C 52.827 183.781,52.804 184.537,52.926 184.660 C 53.048 184.782,53.272 184.225,53.422 183.422 C 53.573 182.619,53.596 181.863,53.474 181.740 C 53.352 181.618,53.128 182.175,52.978 182.978 M104.880 183.400 C 104.880 184.060,105.024 185.050,105.200 185.600 C 105.511 186.572,105.520 186.567,105.520 185.400 C 105.520 184.740,105.376 183.750,105.200 183.200 C 104.889 182.228,104.880 182.233,104.880 183.400 M135.378 185.778 C 135.227 186.581,135.194 187.327,135.304 187.437 C 135.414 187.547,135.627 186.981,135.778 186.178 C 135.928 185.375,135.962 184.628,135.852 184.518 C 135.742 184.408,135.528 184.975,135.378 185.778 M52.273 186.153 C 52.123 186.545,52.011 187.166,52.025 187.533 C 52.042 187.975,52.181 187.874,52.437 187.234 C 52.649 186.703,52.761 186.082,52.685 185.854 C 52.609 185.627,52.424 185.761,52.273 186.153 M105.680 188.400 C 105.680 188.950,105.824 189.850,106.000 190.400 L 106.320 191.400 106.320 190.400 C 106.320 189.850,106.176 188.950,106.000 188.400 L 105.680 187.400 105.680 188.400 M51.400 190.000 C 51.248 190.691,51.214 191.347,51.324 191.457 C 51.434 191.567,51.648 191.091,51.800 190.400 C 51.952 189.709,51.986 189.053,51.876 188.943 C 51.766 188.833,51.552 189.309,51.400 190.000 M134.600 190.000 C 134.448 190.691,134.414 191.347,134.524 191.457 C 134.634 191.567,134.848 191.091,135.000 190.400 C 135.152 189.709,135.186 189.053,135.076 188.943 C 134.966 188.833,134.752 189.309,134.600 190.000 M50.622 193.822 C 50.472 194.625,50.438 195.372,50.548 195.482 C 50.658 195.592,50.872 195.025,51.022 194.222 C 51.173 193.419,51.206 192.673,51.096 192.563 C 50.986 192.453,50.773 193.019,50.622 193.822 M106.487 193.600 C 106.491 194.150,106.632 195.140,106.800 195.800 L 107.105 197.000 107.113 195.800 C 107.117 195.140,106.976 194.150,106.800 193.600 L 106.480 192.600 106.487 193.600 M133.778 194.178 C 133.627 194.981,133.594 195.727,133.704 195.837 C 133.814 195.947,134.027 195.381,134.178 194.578 C 134.328 193.775,134.362 193.028,134.252 192.918 C 134.142 192.808,133.928 193.375,133.778 194.178 M49.778 197.778 C 49.627 198.581,49.594 199.327,49.704 199.437 C 49.814 199.547,50.027 198.981,50.178 198.178 C 50.328 197.375,50.362 196.628,50.252 196.518 C 50.142 196.408,49.928 196.975,49.778 197.778 M133.022 198.222 C 132.872 199.025,132.838 199.772,132.948 199.882 C 133.058 199.992,133.272 199.425,133.422 198.622 C 133.573 197.819,133.606 197.073,133.496 196.963 C 133.386 196.853,133.173 197.419,133.022 198.222 M107.268 198.400 C 107.262 198.950,107.411 199.760,107.600 200.200 L 107.944 201.000 107.932 200.200 C 107.926 199.760,107.776 198.950,107.600 198.400 L 107.280 197.400 107.268 198.400 M48.978 201.778 C 48.827 202.581,48.794 203.327,48.904 203.437 C 49.014 203.547,49.227 202.981,49.378 202.178 C 49.528 201.375,49.562 200.628,49.452 200.518 C 49.342 200.408,49.128 200.975,48.978 201.778 M132.273 201.353 C 132.123 201.745,132.011 202.366,132.025 202.733 C 132.042 203.175,132.181 203.074,132.437 202.434 C 132.649 201.903,132.761 201.282,132.685 201.054 C 132.609 200.827,132.424 200.961,132.273 201.353 M108.080 202.600 C 108.080 203.260,108.224 204.250,108.400 204.800 C 108.711 205.772,108.720 205.767,108.720 204.600 C 108.720 203.940,108.576 202.950,108.400 202.400 C 108.089 201.428,108.080 201.433,108.080 202.600 M131.422 205.422 C 131.272 206.225,131.238 206.972,131.348 207.082 C 131.458 207.192,131.672 206.625,131.822 205.822 C 131.973 205.019,132.006 204.273,131.896 204.163 C 131.786 204.053,131.573 204.619,131.422 205.422 M48.200 205.600 C 48.048 206.291,48.014 206.947,48.124 207.057 C 48.234 207.167,48.448 206.691,48.600 206.000 C 48.752 205.309,48.786 204.653,48.676 204.543 C 48.566 204.433,48.352 204.909,48.200 205.600 M108.880 207.800 C 108.880 208.460,109.024 209.450,109.200 210.000 C 109.511 210.972,109.520 210.967,109.520 209.800 C 109.520 209.140,109.376 208.150,109.200 207.600 C 108.889 206.628,108.880 206.633,108.880 207.800 M47.429 209.029 C 47.281 209.615,47.251 210.184,47.361 210.294 C 47.471 210.404,47.681 210.015,47.829 209.429 C 47.976 208.842,48.006 208.273,47.896 208.163 C 47.786 208.053,47.576 208.442,47.429 209.029 M130.600 209.600 C 130.448 210.291,130.414 210.947,130.524 211.057 C 130.634 211.167,130.848 210.691,131.000 210.000 C 131.152 209.309,131.186 208.653,131.076 208.543 C 130.966 208.433,130.752 208.909,130.600 209.600 M46.578 212.578 C 46.427 213.381,46.394 214.127,46.504 214.237 C 46.614 214.347,46.827 213.781,46.978 212.978 C 47.128 212.175,47.162 211.428,47.052 211.318 C 46.942 211.208,46.728 211.775,46.578 212.578 M109.695 212.600 C 109.695 213.260,109.832 214.340,110.000 215.000 L 110.305 216.200 110.305 215.000 C 110.305 214.340,110.168 213.260,110.000 212.600 L 109.695 211.400 109.695 212.600 M129.800 213.600 C 129.648 214.291,129.614 214.947,129.724 215.057 C 129.834 215.167,130.048 214.691,130.200 214.000 C 130.352 213.309,130.386 212.653,130.276 212.543 C 130.166 212.433,129.952 212.909,129.800 213.600 M45.800 216.400 C 45.648 217.091,45.614 217.747,45.724 217.857 C 45.834 217.967,46.048 217.491,46.200 216.800 C 46.352 216.109,46.386 215.453,46.276 215.343 C 46.166 215.233,45.952 215.709,45.800 216.400 M110.480 218.000 C 110.480 218.550,110.624 219.450,110.800 220.000 L 111.120 221.000 111.120 220.000 C 111.120 219.450,110.976 218.550,110.800 218.000 L 110.480 217.000 110.480 218.000 M45.000 220.400 C 44.848 221.091,44.814 221.747,44.924 221.857 C 45.034 221.967,45.248 221.491,45.400 220.800 C 45.552 220.109,45.586 219.453,45.476 219.343 C 45.366 219.233,45.152 219.709,45.000 220.400 M111.287 223.000 C 111.283 223.660,111.424 224.650,111.600 225.200 L 111.920 226.200 111.913 225.200 C 111.909 224.650,111.768 223.660,111.600 223.000 L 111.295 221.800 111.287 223.000 M44.222 224.222 C 44.072 225.025,44.038 225.772,44.148 225.882 C 44.258 225.992,44.472 225.425,44.622 224.622 C 44.773 223.819,44.806 223.073,44.696 222.963 C 44.586 222.853,44.373 223.419,44.222 224.222 M43.422 228.222 C 43.272 229.025,43.238 229.772,43.348 229.882 C 43.458 229.992,43.672 229.425,43.822 228.622 C 43.973 227.819,44.006 227.073,43.896 226.963 C 43.786 226.853,43.573 227.419,43.422 228.222 M112.056 227.800 C 112.056 228.240,112.211 228.960,112.400 229.400 L 112.744 230.200 112.744 229.400 C 112.744 228.960,112.589 228.240,112.400 227.800 L 112.056 227.000 112.056 227.800 M42.600 231.600 C 42.448 232.291,42.414 232.947,42.524 233.057 C 42.634 233.167,42.848 232.691,43.000 232.000 C 43.152 231.309,43.186 230.653,43.076 230.543 C 42.966 230.433,42.752 230.909,42.600 231.600 M112.887 232.000 C 112.891 232.550,113.032 233.540,113.200 234.200 L 113.505 235.400 113.513 234.200 C 113.517 233.540,113.376 232.550,113.200 232.000 L 112.880 231.000 112.887 232.000 M41.778 234.978 C 41.627 235.781,41.594 236.527,41.704 236.637 C 41.814 236.747,42.027 236.181,42.178 235.378 C 42.328 234.575,42.362 233.828,42.252 233.718 C 42.142 233.608,41.928 234.175,41.778 234.978 M395.392 236.900 C 395.123 238.187,392.346 244.842,391.595 246.000 C 391.381 246.330,390.551 247.860,389.750 249.400 C 377.542 272.883,357.494 284.488,336.900 279.992 C 333.890 279.335,333.418 279.724,336.037 280.704 C 347.607 285.035,364.125 281.999,374.388 273.655 C 377.262 271.319,383.194 265.235,384.343 263.446 C 384.924 262.540,386.148 260.809,387.062 259.599 C 388.786 257.318,393.066 249.751,393.622 248.000 C 393.797 247.450,394.762 245.020,395.766 242.600 C 397.858 237.560,397.850 237.610,396.853 236.461 C 395.864 235.321,395.712 235.367,395.392 236.900 M113.687 237.000 C 113.683 237.660,113.824 238.650,114.000 239.200 L 114.320 240.200 114.313 239.200 C 114.309 238.650,114.168 237.660,114.000 237.000 L 113.695 235.800 113.687 237.000 M41.000 239.200 C 40.848 239.891,40.807 240.541,40.909 240.642 C 41.011 240.744,41.209 240.253,41.350 239.550 C 41.683 237.883,41.360 237.560,41.000 239.200 M114.487 242.400 C 114.483 243.170,114.624 244.250,114.800 244.800 C 115.248 246.199,115.248 243.961,114.800 242.200 L 114.495 241.000 114.487 242.400 M40.178 242.978 C 40.027 243.781,39.994 244.527,40.104 244.637 C 40.214 244.747,40.427 244.181,40.578 243.378 C 40.728 242.575,40.762 241.828,40.652 241.718 C 40.542 241.608,40.328 242.175,40.178 242.978 M39.378 246.978 C 39.227 247.781,39.194 248.527,39.304 248.637 C 39.414 248.747,39.627 248.181,39.778 247.378 C 39.928 246.575,39.962 245.828,39.852 245.718 C 39.742 245.608,39.528 246.175,39.378 246.978 M115.280 247.400 C 115.280 248.060,115.424 249.050,115.600 249.600 C 115.911 250.572,115.920 250.567,115.920 249.400 C 115.920 248.740,115.776 247.750,115.600 247.200 C 115.289 246.228,115.280 246.233,115.280 247.400 M38.600 250.800 C 38.448 251.491,38.414 252.147,38.524 252.257 C 38.634 252.367,38.848 251.891,39.000 251.200 C 39.152 250.509,39.186 249.853,39.076 249.743 C 38.966 249.633,38.752 250.109,38.600 250.800 M116.080 252.600 C 116.080 253.260,116.224 254.250,116.400 254.800 C 116.711 255.772,116.720 255.767,116.720 254.600 C 116.720 253.940,116.576 252.950,116.400 252.400 C 116.089 251.428,116.080 251.433,116.080 252.600 M37.888 254.133 C 37.730 254.536,37.611 255.256,37.625 255.733 C 37.649 256.556,37.671 256.550,38.040 255.625 C 38.254 255.089,38.373 254.369,38.303 254.025 C 38.199 253.511,38.125 253.530,37.888 254.133 M116.856 257.400 C 116.856 257.840,117.011 258.560,117.200 259.000 L 117.544 259.800 117.544 259.000 C 117.544 258.560,117.389 257.840,117.200 257.400 L 116.856 256.600 116.856 257.400 M37.029 258.229 C 36.881 258.815,36.838 259.372,36.932 259.466 C 37.027 259.560,37.224 259.158,37.371 258.571 C 37.519 257.985,37.562 257.428,37.468 257.334 C 37.373 257.240,37.176 257.642,37.029 258.229 M317.183 260.690 C 316.202 261.763,314.387 263.808,313.150 265.235 C 308.225 270.912,297.871 278.094,293.000 279.210 C 281.801 281.778,269.671 280.993,265.024 277.400 C 263.843 276.487,263.256 276.701,264.400 277.627 C 272.155 283.903,289.959 284.309,301.439 278.473 C 307.948 275.164,320.000 263.970,320.000 261.234 C 320.000 258.733,319.127 258.564,317.183 260.690 M36.222 261.422 C 36.072 262.225,36.038 262.972,36.148 263.082 C 36.258 263.192,36.472 262.625,36.622 261.822 C 36.773 261.019,36.806 260.273,36.696 260.163 C 36.586 260.053,36.373 260.619,36.222 261.422 M117.680 261.600 C 117.680 262.150,117.824 263.050,118.000 263.600 L 118.320 264.600 118.320 263.600 C 118.320 263.050,118.176 262.150,118.000 261.600 L 117.680 260.600 117.680 261.600 M35.400 265.600 C 35.248 266.291,35.214 266.947,35.324 267.057 C 35.434 267.167,35.648 266.691,35.800 266.000 C 35.952 265.309,35.986 264.653,35.876 264.543 C 35.766 264.433,35.552 264.909,35.400 265.600 M118.487 266.600 C 118.491 267.260,118.632 268.340,118.800 269.000 L 119.105 270.200 119.113 268.800 C 119.117 268.030,118.976 266.950,118.800 266.400 C 118.489 265.430,118.480 265.435,118.487 266.600 M34.622 269.422 C 34.472 270.225,34.438 270.972,34.548 271.082 C 34.658 271.192,34.872 270.625,35.022 269.822 C 35.173 269.019,35.206 268.273,35.096 268.163 C 34.986 268.053,34.773 268.619,34.622 269.422 M119.280 271.800 C 119.280 272.460,119.424 273.450,119.600 274.000 C 119.911 274.972,119.920 274.967,119.920 273.800 C 119.920 273.140,119.776 272.150,119.600 271.600 C 119.289 270.628,119.280 270.633,119.280 271.800 M33.778 273.378 C 33.627 274.181,33.594 274.927,33.704 275.037 C 33.814 275.147,34.027 274.581,34.178 273.778 C 34.328 272.975,34.362 272.228,34.252 272.118 C 34.142 272.008,33.928 272.575,33.778 273.378 M33.052 276.900 C 32.719 278.143,32.741 279.200,33.100 279.199 C 33.265 279.199,33.449 278.479,33.510 277.599 C 33.631 275.830,33.424 275.513,33.052 276.900 M120.037 277.000 C 120.023 277.660,120.180 278.465,120.384 278.788 C 121.006 279.771,121.093 279.093,120.562 277.400 C 120.088 275.883,120.060 275.862,120.037 277.000 " stroke="none" fill="#6eac47" fill-rule="evenodd"></path></g></svg>